<svg width="95" height="26" viewBox="0 0 95 26" fill="none" xmlns="http://www.w3.org/2000/svg">
<path d="M0 13C0 5.8203 5.8203 0 13 0H82C89.1797 0 95 5.8203 95 13V13C95 20.1797 89.1797 26 82 26H13C5.8203 26 0 20.1797 0 13V13Z" fill="#7FC5F1"/>
<path d="M20.362 10.642V11.832H24.688V10.642H20.362ZM20.334 7.912V9.102H24.198V13.484H20.334V14.674H25.528V7.912H20.334ZM19.816 19.812C20.166 19.546 20.726 19.336 24.66 18.006C24.548 17.726 24.38 17.25 24.282 16.886L20.236 18.132L19.69 18.622L19.816 19.812ZM22.812 15.78C23.512 16.97 24.338 18.552 24.688 19.518L25.906 18.86C25.528 17.908 24.66 16.368 23.946 15.234L22.812 15.78ZM19.816 19.812C19.816 19.294 21.244 18.72 21.244 18.72V7.912H19.9V17.53C19.9 18.062 19.55 18.328 19.27 18.468C19.494 18.79 19.732 19.434 19.816 19.812ZM30.078 8.01V16.074C30.078 16.256 30.022 16.298 29.84 16.312C29.658 16.326 29.056 16.326 28.44 16.298C28.608 16.648 28.776 17.194 28.818 17.558C29.784 17.558 30.428 17.544 30.848 17.334C31.268 17.11 31.38 16.746 31.38 16.088V8.01H30.078ZM26.592 8.01V20.19H27.908V9.228H30.75V8.01H26.592ZM38.268 14.366V15.542H46.346V14.366H38.268ZM41.404 8.346L40.83 9.27H44.876L45.17 8.346H41.404ZM43.378 12.518V18.538C43.378 18.72 43.322 18.776 43.098 18.776C42.874 18.79 42.132 18.79 41.376 18.762C41.544 19.126 41.726 19.672 41.768 20.036C42.846 20.036 43.574 20.008 44.036 19.812C44.512 19.602 44.638 19.224 44.638 18.552V12.518H43.378ZM41.88 7.17C41.082 8.29 39.57 9.452 37.932 10.096C38.184 10.306 38.576 10.684 38.758 10.922C40.452 10.138 42.118 8.892 43.168 7.534L41.88 7.17ZM39.164 16.298C39.836 16.998 40.578 17.978 40.886 18.608L41.964 17.936C41.642 17.306 40.858 16.382 40.186 15.71L39.164 16.298ZM40.382 9.592C41.194 10.25 42.076 11.202 42.468 11.874L43.336 11.23C42.93 10.558 42.006 9.634 41.194 9.004L40.382 9.592ZM34.544 11.188V12.336H37.19V11.188H34.544ZM33.424 14.184V15.332H37.106V14.184H33.424ZM36.602 7.198V20.176H37.82V7.198H36.602ZM33.998 7.744V12.336H35.16V7.744H33.998ZM34.152 14.646V15.486C34.152 16.536 34.04 18.328 33.284 19.574C33.578 19.7 34.054 20.008 34.278 20.204C35.174 18.79 35.314 16.718 35.314 15.528V14.646H34.152ZM44.694 8.346V8.556C43.7 11.09 40.998 12.77 38.24 13.428C38.464 13.68 38.758 14.114 38.898 14.408C41.908 13.54 44.75 11.79 45.968 8.682L45.156 8.29L44.932 8.346H44.694ZM38.254 11.37L38.464 12.322C39.29 12.182 40.242 12.028 41.208 11.86L41.124 10.978C40.032 11.132 39.024 11.286 38.254 11.37ZM57.434 8.094C58.162 8.682 58.988 9.564 59.366 10.152L60.346 9.41C59.954 8.836 59.1 8.01 58.358 7.45L57.434 8.094ZM48.026 10.53V11.65H60.668V10.53H48.026ZM48.628 8.374V9.466H54.774V8.374H48.628ZM49.846 14.884V15.724H54.816V14.884H49.846ZM49.846 16.522V17.362H54.816V16.522H49.846ZM49.776 18.188V19.238H55.012V18.188H49.776ZM51.106 7.198V11.3H52.38V7.198H51.106ZM52.044 13.68V18.538H53.122V13.68H52.044ZM49.958 11.734C49.468 12.938 48.642 14.128 47.746 14.898C47.998 15.066 48.446 15.458 48.642 15.654C49.566 14.772 50.49 13.4 51.064 12.028L49.958 11.734ZM50.294 13.106H50.098L49.146 14.128V19.91H50.294V14.114H55.068V13.106H50.294ZM55.558 7.198C55.572 13.988 56.356 20.036 59.114 20.036C60.192 20.036 60.598 19.434 60.808 17.278C60.486 17.152 60.052 16.872 59.772 16.592C59.702 18.16 59.562 18.762 59.226 18.762C57.728 18.762 56.776 13.526 56.86 7.198H55.558ZM58.862 12.378C58.036 15.248 56.468 17.81 54.256 19.238C54.592 19.476 54.97 19.868 55.18 20.162C57.532 18.496 59.128 15.836 60.08 12.728L58.862 12.378ZM51.652 12.154C51.96 12.616 52.282 13.246 52.408 13.652L53.444 13.204C53.304 12.784 52.968 12.196 52.632 11.762L51.652 12.154ZM69.278 11.748V13.078H74.416V11.748H69.278ZM62.39 18.16V19.476H75.102V18.16H62.39ZM68.606 7.212V18.846H70.006V7.212H68.606ZM64.266 10.194V18.79H65.638V10.194H64.266Z" fill="white"/>
</svg>
