<svg width="95" height="26" viewBox="0 0 95 26" fill="none" xmlns="http://www.w3.org/2000/svg">
<path d="M0 13C0 5.8203 5.8203 0 13 0H82C89.1797 0 95 5.8203 95 13V13C95 20.1797 89.1797 26 82 26H13C5.8203 26 0 20.1797 0 13V13Z" fill="#A2A2A2"/>
<path d="M27.946 10.586V17.404C27.946 19.322 28.702 19.784 31.166 19.784C31.74 19.784 35.562 19.784 36.178 19.784C38.6 19.784 39.118 19.028 39.412 16.41C39.02 16.34 38.432 16.116 38.068 15.878C37.872 18.048 37.648 18.482 36.15 18.482C35.254 18.482 31.866 18.482 31.124 18.482C29.584 18.482 29.304 18.3 29.304 17.418V10.586H27.946ZM28.702 12.714V14.03H36.738V12.714H28.702ZM27.288 8.024V9.34H36.234V14.702H37.606V8.024H27.288ZM45.222 11.958V18.062H46.384V12.994H52.796V11.958H45.222ZM46.258 7.646V12.35H47.434V8.64H50.962V12.35H52.166V7.646H46.258ZM47.98 13.75V14.632H50.052V15.892H47.98V16.774H51.046V13.75H47.98ZM52.054 11.958V16.844C52.054 16.984 51.998 17.026 51.844 17.04C51.704 17.04 51.214 17.04 50.71 17.026C50.85 17.32 51.004 17.768 51.046 18.076C51.844 18.076 52.404 18.076 52.782 17.894C53.16 17.712 53.258 17.404 53.258 16.858V11.958H52.054ZM47.378 13.75V17.278H48.358V13.75H47.378ZM48.554 9.662V12.504H49.534V10.544H51.522V9.662H48.554ZM41.47 7.772C42.058 8.472 42.8 9.452 43.136 10.04L44.186 9.34C43.822 8.766 43.094 7.87 42.478 7.184L41.47 7.772ZM41.036 10.432V11.51H44.032V10.432H41.036ZM43.682 16.704L42.8 17.082C43.85 19.56 45.642 19.952 48.918 19.952C50.5 19.952 52.278 19.924 53.664 19.84C53.734 19.476 53.888 18.874 54.084 18.608C52.586 18.748 50.416 18.818 48.932 18.818C46.244 18.804 44.494 18.566 43.682 16.704ZM43.444 13.89V14.1C43.108 16.592 42.17 18.37 40.784 19.322C41.036 19.504 41.484 19.952 41.652 20.218C43.122 19.126 44.2 17.096 44.62 14.086L44.046 13.862L43.836 13.89H43.444ZM41.274 15.136C41.386 15.024 41.764 14.94 42.114 14.94H43.962V13.89H41.82L41.274 14.17V15.136ZM41.274 15.136C41.274 14.828 42.212 14.38 42.212 14.38C42.996 13.47 44.228 11.706 44.886 10.74L44.046 10.362L43.682 10.516V10.558C43.22 11.314 41.932 13.162 41.512 13.582C41.26 13.862 41.036 13.96 40.812 14.016C40.938 14.268 41.19 14.856 41.274 15.136ZM63.408 7.856V9.06H67.174V7.856H63.408ZM63.408 11.048V12.224H67.174V11.048H63.408ZM63.394 14.282V15.472H67.202V14.282H63.394ZM66.6 7.856V18.608C66.6 18.818 66.516 18.888 66.32 18.888C66.11 18.902 65.41 18.902 64.738 18.874C64.906 19.21 65.088 19.798 65.13 20.148C66.166 20.148 66.852 20.12 67.286 19.91C67.734 19.7 67.874 19.322 67.874 18.622V7.856H66.6ZM62.862 7.856V12.966C62.862 14.982 62.764 17.642 61.644 19.476C61.938 19.602 62.484 19.994 62.694 20.232C63.926 18.244 64.108 15.15 64.108 12.966V7.856H62.862ZM55.498 8.962V10.124H62.274V8.962H55.498ZM57.22 11.188V12.224H60.678V11.188H57.22ZM57.22 13.386V14.422H60.692V13.386H57.22ZM55.316 15.626V16.802H62.232V15.626H55.316ZM56.646 7.352V16.074H57.85V7.352H56.646ZM60.048 7.352V16.074H61.266V7.352H60.048ZM57.178 17.012C56.772 17.908 56.044 18.818 55.274 19.42C55.582 19.602 56.1 19.98 56.352 20.204C57.108 19.504 57.92 18.426 58.438 17.376L57.178 17.012ZM59.222 17.53C59.768 18.188 60.426 19.112 60.692 19.672L61.77 19.042C61.462 18.468 60.79 17.614 60.23 16.984L59.222 17.53Z" fill="white"/>
</svg>
