<svg width="95" height="26" viewBox="0 0 95 26" fill="none" xmlns="http://www.w3.org/2000/svg">
<path d="M0 13C0 5.8203 5.8203 0 13 0H82C89.1797 0 95 5.8203 95 13V13C95 20.1797 89.1797 26 82 26H13C5.8203 26 0 20.1797 0 13V13Z" fill="#FE9669"/>
<path d="M20.362 10.642V11.832H24.688V10.642H20.362ZM20.334 7.912V9.102H24.198V13.484H20.334V14.674H25.528V7.912H20.334ZM19.816 19.812C20.166 19.546 20.726 19.336 24.66 18.006C24.548 17.726 24.38 17.25 24.282 16.886L20.236 18.132L19.69 18.622L19.816 19.812ZM22.812 15.78C23.512 16.97 24.338 18.552 24.688 19.518L25.906 18.86C25.528 17.908 24.66 16.368 23.946 15.234L22.812 15.78ZM19.816 19.812C19.816 19.294 21.244 18.72 21.244 18.72V7.912H19.9V17.53C19.9 18.062 19.55 18.328 19.27 18.468C19.494 18.79 19.732 19.434 19.816 19.812ZM30.078 8.01V16.074C30.078 16.256 30.022 16.298 29.84 16.312C29.658 16.326 29.056 16.326 28.44 16.298C28.608 16.648 28.776 17.194 28.818 17.558C29.784 17.558 30.428 17.544 30.848 17.334C31.268 17.11 31.38 16.746 31.38 16.088V8.01H30.078ZM26.592 8.01V20.19H27.908V9.228H30.75V8.01H26.592ZM38.268 14.366V15.542H46.346V14.366H38.268ZM41.404 8.346L40.83 9.27H44.876L45.17 8.346H41.404ZM43.378 12.518V18.538C43.378 18.72 43.322 18.776 43.098 18.776C42.874 18.79 42.132 18.79 41.376 18.762C41.544 19.126 41.726 19.672 41.768 20.036C42.846 20.036 43.574 20.008 44.036 19.812C44.512 19.602 44.638 19.224 44.638 18.552V12.518H43.378ZM41.88 7.17C41.082 8.29 39.57 9.452 37.932 10.096C38.184 10.306 38.576 10.684 38.758 10.922C40.452 10.138 42.118 8.892 43.168 7.534L41.88 7.17ZM39.164 16.298C39.836 16.998 40.578 17.978 40.886 18.608L41.964 17.936C41.642 17.306 40.858 16.382 40.186 15.71L39.164 16.298ZM40.382 9.592C41.194 10.25 42.076 11.202 42.468 11.874L43.336 11.23C42.93 10.558 42.006 9.634 41.194 9.004L40.382 9.592ZM34.544 11.188V12.336H37.19V11.188H34.544ZM33.424 14.184V15.332H37.106V14.184H33.424ZM36.602 7.198V20.176H37.82V7.198H36.602ZM33.998 7.744V12.336H35.16V7.744H33.998ZM34.152 14.646V15.486C34.152 16.536 34.04 18.328 33.284 19.574C33.578 19.7 34.054 20.008 34.278 20.204C35.174 18.79 35.314 16.718 35.314 15.528V14.646H34.152ZM44.694 8.346V8.556C43.7 11.09 40.998 12.77 38.24 13.428C38.464 13.68 38.758 14.114 38.898 14.408C41.908 13.54 44.75 11.79 45.968 8.682L45.156 8.29L44.932 8.346H44.694ZM38.254 11.37L38.464 12.322C39.29 12.182 40.242 12.028 41.208 11.86L41.124 10.978C40.032 11.132 39.024 11.286 38.254 11.37ZM57.476 9.928L57.182 11.062H60.892V9.928H57.476ZM57.63 7.184C57.322 9.312 56.776 11.342 55.838 12.658C56.034 12.91 56.37 13.498 56.496 13.75C57.644 12.21 58.344 9.858 58.764 7.394L57.63 7.184ZM53.29 7.198V11.104H54.326V7.198H53.29ZM51.428 8.22V11.342H56.216V8.234H55.264V10.306H52.352V8.22H51.428ZM51.358 12.14V13.12H56.034V12.14H51.358ZM57.63 11.426L56.72 11.552C57.182 15.388 58.064 18.524 60.22 20.12C60.402 19.812 60.78 19.35 61.046 19.126C58.974 17.81 58.05 14.856 57.63 11.426ZM59.226 10.642C58.848 14.87 57.826 17.74 55.04 19.336C55.292 19.546 55.74 20.008 55.894 20.232C58.764 18.37 59.912 15.332 60.388 10.726L59.226 10.642ZM51.456 15.92V16.872H56.216V15.92H51.456ZM53.262 14.282V18.552H54.424V14.282H53.262ZM50.028 7.184C49.538 8.08 48.544 9.214 47.662 9.928C47.872 10.166 48.194 10.656 48.348 10.936C49.384 10.082 50.504 8.794 51.218 7.632L50.028 7.184ZM50.294 10.054C49.622 11.496 48.558 12.952 47.536 13.932C47.76 14.212 48.138 14.842 48.264 15.108C49.412 13.946 50.644 12.14 51.442 10.46L50.294 10.054ZM49.3 12.826V20.176H50.504V11.636V11.622L49.3 12.826ZM55.74 13.47C54.69 13.778 52.632 14.142 51.092 14.254C51.288 14.478 51.498 14.87 51.596 15.094C53.192 14.954 55.194 14.632 56.286 14.254L55.74 13.47ZM51.022 18.328L51.19 19.434C52.618 19.266 54.508 19.042 56.37 18.804V17.88C54.382 18.062 52.366 18.244 51.022 18.328ZM70.104 7.366V20.176H71.448V7.366H70.104ZM67.71 7.926C67.388 9.704 66.8 11.496 66.016 12.644C66.338 12.784 66.898 13.092 67.164 13.288C67.934 12.042 68.592 10.11 68.984 8.178L67.71 7.926ZM68.018 9.984L67.696 11.286H74.542V9.984H68.018ZM66.184 14.086V15.374H75.172V14.086H66.184ZM65.344 7.24C64.616 9.312 63.398 11.37 62.11 12.686C62.348 13.008 62.726 13.708 62.852 14.03C64.322 12.434 65.708 9.998 66.604 7.632L65.344 7.24ZM63.944 10.964V20.162H65.204V9.718V9.704L63.944 10.964Z" fill="white"/>
</svg>
