<svg width="95" height="26" viewBox="0 0 95 26" fill="none" xmlns="http://www.w3.org/2000/svg">
<path d="M0 13C0 5.8203 5.8203 0 13 0H82C89.1797 0 95 5.8203 95 13V13C95 20.1797 89.1797 26 82 26H13C5.8203 26 0 20.1797 0 13V13Z" fill="#FF8F8F"/>
<path d="M36.136 9.928L35.842 11.062H39.552V9.928H36.136ZM36.29 7.184C35.982 9.312 35.436 11.342 34.498 12.658C34.694 12.91 35.03 13.498 35.156 13.75C36.304 12.21 37.004 9.858 37.424 7.394L36.29 7.184ZM31.95 7.198V11.104H32.986V7.198H31.95ZM30.088 8.22V11.342H34.876V8.234H33.924V10.306H31.012V8.22H30.088ZM30.018 12.14V13.12H34.694V12.14H30.018ZM36.29 11.426L35.38 11.552C35.842 15.388 36.724 18.524 38.88 20.12C39.062 19.812 39.44 19.35 39.706 19.126C37.634 17.81 36.71 14.856 36.29 11.426ZM37.886 10.642C37.508 14.87 36.486 17.74 33.7 19.336C33.952 19.546 34.4 20.008 34.554 20.232C37.424 18.37 38.572 15.332 39.048 10.726L37.886 10.642ZM30.116 15.92V16.872H34.876V15.92H30.116ZM31.922 14.282V18.552H33.084V14.282H31.922ZM28.688 7.184C28.198 8.08 27.204 9.214 26.322 9.928C26.532 10.166 26.854 10.656 27.008 10.936C28.044 10.082 29.164 8.794 29.878 7.632L28.688 7.184ZM28.954 10.054C28.282 11.496 27.218 12.952 26.196 13.932C26.42 14.212 26.798 14.842 26.924 15.108C28.072 13.946 29.304 12.14 30.102 10.46L28.954 10.054ZM27.96 12.826V20.176H29.164V11.636V11.622L27.96 12.826ZM34.4 13.47C33.35 13.778 31.292 14.142 29.752 14.254C29.948 14.478 30.158 14.87 30.256 15.094C31.852 14.954 33.854 14.632 34.946 14.254L34.4 13.47ZM29.682 18.328L29.85 19.434C31.278 19.266 33.168 19.042 35.03 18.804V17.88C33.042 18.062 31.026 18.244 29.682 18.328ZM48.764 7.366V20.176H50.108V7.366H48.764ZM46.37 7.926C46.048 9.704 45.46 11.496 44.676 12.644C44.998 12.784 45.558 13.092 45.824 13.288C46.594 12.042 47.252 10.11 47.644 8.178L46.37 7.926ZM46.678 9.984L46.356 11.286H53.202V9.984H46.678ZM44.844 14.086V15.374H53.832V14.086H44.844ZM44.004 7.24C43.276 9.312 42.058 11.37 40.77 12.686C41.008 13.008 41.386 13.708 41.512 14.03C42.982 12.434 44.368 9.998 45.264 7.632L44.004 7.24ZM42.604 10.964V20.162H43.864V9.718V9.704L42.604 10.964ZM56.128 9.662V16.508H57.458V10.964H66.152V16.438H67.538V9.662H56.128ZM56.828 14.38V15.682H66.936V14.38H56.828ZM61.098 7.184V20.176H62.498V7.184H61.098Z" fill="white"/>
</svg>
