<svg width="288" height="16" viewBox="0 0 288 16" fill="none" xmlns="http://www.w3.org/2000/svg">
<path d="M5.278 12.196C6.608 12.196 7.602 11.664 8.414 10.712L7.714 9.9C7.056 10.628 6.3 11.048 5.334 11.048C3.374 11.048 2.142 9.438 2.142 6.848C2.142 4.286 3.43 2.69 5.376 2.69C6.244 2.69 6.93 3.082 7.462 3.656L8.176 2.816C7.574 2.158 6.608 1.556 5.362 1.556C2.758 1.556 0.812 3.572 0.812 6.876C0.812 10.208 2.716 12.196 5.278 12.196ZM13.4497 12.196C15.3117 12.196 16.9637 10.726 16.9637 8.22C16.9637 5.672 15.3117 4.216 13.4497 4.216C11.5737 4.216 9.92173 5.672 9.92173 8.22C9.92173 10.726 11.5737 12.196 13.4497 12.196ZM13.4497 11.132C12.1197 11.132 11.2377 9.956 11.2377 8.22C11.2377 6.456 12.1197 5.28 13.4497 5.28C14.7657 5.28 15.6477 6.456 15.6477 8.22C15.6477 9.956 14.7657 11.132 13.4497 11.132ZM19.266 15.206H20.54V12.644L20.512 11.314C21.198 11.874 21.912 12.196 22.598 12.196C24.348 12.196 25.902 10.684 25.902 8.094C25.902 5.742 24.852 4.216 22.878 4.216C21.996 4.216 21.156 4.706 20.47 5.28H20.428L20.302 4.398H19.266V15.206ZM22.402 11.118C21.898 11.118 21.226 10.908 20.54 10.334V6.33C21.282 5.644 21.926 5.28 22.57 5.28C24.012 5.28 24.586 6.414 24.586 8.108C24.586 9.984 23.648 11.118 22.402 11.118ZM28.2439 15.29C29.7699 15.29 30.5539 14.142 31.0859 12.644L33.9559 4.398H32.7099L31.3379 8.626C31.1419 9.312 30.9179 10.068 30.7079 10.768H30.6379C30.3859 10.068 30.1339 9.298 29.8959 8.626L28.3419 4.398H27.0259L30.0779 12.014L29.9099 12.588C29.5879 13.526 29.0419 14.226 28.1879 14.226C27.9779 14.226 27.7539 14.17 27.6139 14.114L27.3619 15.136C27.5999 15.234 27.8939 15.29 28.2439 15.29ZM35.7127 12H36.9867V7.128C37.4907 5.826 38.2747 5.364 38.9047 5.364C39.2127 5.364 39.3807 5.406 39.6467 5.49L39.8847 4.37C39.6327 4.258 39.4087 4.216 39.0727 4.216C38.2187 4.216 37.4347 4.818 36.9167 5.784H36.8747L36.7487 4.398H35.7127V12ZM41.4204 12H42.6944V4.398H41.4204V12ZM42.0644 2.83C42.5544 2.83 42.9184 2.508 42.9184 1.976C42.9184 1.486 42.5544 1.164 42.0644 1.164C41.5604 1.164 41.2104 1.486 41.2104 1.976C41.2104 2.508 41.5604 2.83 42.0644 2.83ZM48.1179 15.5C50.4559 15.5 51.9539 14.296 51.9539 12.882C51.9539 11.622 51.0719 11.076 49.3079 11.076H47.8239C46.8019 11.076 46.4799 10.726 46.4799 10.236C46.4799 9.83 46.7039 9.564 46.9699 9.34C47.3199 9.508 47.7399 9.592 48.1039 9.592C49.6579 9.592 50.8899 8.584 50.8899 6.96C50.8899 6.302 50.6379 5.742 50.2739 5.392H51.8279V4.398H49.1819C48.9159 4.3 48.5379 4.216 48.1039 4.216C46.5639 4.216 45.2479 5.252 45.2479 6.932C45.2479 7.842 45.7519 8.57 46.2559 8.976V9.032C45.8499 9.312 45.4019 9.802 45.4019 10.432C45.4019 11.034 45.6959 11.44 46.0879 11.692V11.748C45.3879 12.196 44.9679 12.826 44.9679 13.47C44.9679 14.772 46.2559 15.5 48.1179 15.5ZM48.1039 8.738C47.2219 8.738 46.4799 8.024 46.4799 6.932C46.4799 5.798 47.2079 5.14 48.1039 5.14C48.9999 5.14 49.7279 5.812 49.7279 6.932C49.7279 8.024 48.9859 8.738 48.1039 8.738ZM48.2859 14.632C46.9139 14.632 46.0879 14.114 46.0879 13.288C46.0879 12.854 46.3119 12.392 46.8579 12C47.2079 12.098 47.5579 12.126 47.8519 12.126H49.1679C50.1619 12.126 50.7079 12.364 50.7079 13.078C50.7079 13.862 49.7559 14.632 48.2859 14.632ZM53.7382 12H55.0122V6.484C55.7682 5.728 56.3142 5.322 57.0842 5.322C58.0922 5.322 58.5262 5.924 58.5262 7.352V12H59.8142V7.184C59.8142 5.252 59.0862 4.216 57.4902 4.216C56.4402 4.216 55.6702 4.79 54.9702 5.476L55.0122 3.908V0.87H53.7382V12ZM64.9021 12.196C65.3781 12.196 65.8821 12.056 66.3021 11.902L66.0501 10.95C65.8121 11.048 65.4621 11.16 65.1961 11.16C64.3141 11.16 64.0201 10.614 64.0201 9.69V5.434H66.0781V4.398H64.0201V2.256H62.9421L62.8021 4.398L61.6121 4.482V5.434H62.7461V9.662C62.7461 11.174 63.2781 12.196 64.9021 12.196ZM76.0123 12.168C78.7423 12.168 81.0803 10.138 81.0803 6.946C81.0803 3.782 78.7423 1.78 76.0123 1.78C73.2963 1.78 70.9723 3.768 70.9723 6.946C70.9723 10.138 73.2963 12.168 76.0123 12.168ZM76.0123 11.524C73.6603 11.524 71.6863 9.69 71.6863 6.946C71.6863 4.23 73.6603 2.424 76.0123 2.424C78.3783 2.424 80.3523 4.23 80.3523 6.946C80.3523 9.69 78.3783 11.524 76.0123 11.524ZM76.1383 10.054C77.0763 10.054 77.6783 9.662 78.2523 9.158L77.7903 8.5C77.3283 8.892 76.8523 9.2 76.1803 9.2C75.0603 9.2 74.3323 8.332 74.3323 6.96C74.3323 5.714 75.0883 4.86 76.2363 4.86C76.7823 4.86 77.1743 5.084 77.5943 5.504L78.1403 4.888C77.6363 4.37 77.0763 3.992 76.1803 3.992C74.6683 3.992 73.2963 5.14 73.2963 6.96C73.2963 8.892 74.5563 10.054 76.1383 10.054ZM82.7468 12H89.1868V10.908H86.2888C85.7708 10.908 85.1408 10.95 84.6088 11.006C86.9748 8.514 88.6968 6.652 88.6968 4.776C88.6968 2.998 87.5488 1.85 85.7148 1.85C84.4128 1.85 83.5168 2.438 82.6768 3.348L83.4188 4.076C83.9928 3.404 84.7208 2.872 85.5608 2.872C86.8348 2.872 87.4368 3.684 87.4368 4.818C87.4368 6.456 85.7568 8.262 82.7468 11.258V12ZM94.0684 12.196C96.0424 12.196 97.2464 10.334 97.2464 6.988C97.2464 3.642 96.0424 1.85 94.0684 1.85C92.0664 1.85 90.8624 3.642 90.8624 6.988C90.8624 10.334 92.0664 12.196 94.0684 12.196ZM94.0684 11.16C92.8924 11.16 92.0944 9.914 92.0944 6.988C92.0944 4.048 92.8924 2.872 94.0684 2.872C95.2304 2.872 96.0144 4.048 96.0144 6.988C96.0144 9.914 95.2304 11.16 94.0684 11.16ZM98.838 12H105.278V10.908H102.38C101.862 10.908 101.232 10.95 100.7 11.006C103.066 8.514 104.788 6.652 104.788 4.776C104.788 2.998 103.64 1.85 101.806 1.85C100.504 1.85 99.608 2.438 98.768 3.348L99.51 4.076C100.084 3.404 100.812 2.872 101.652 2.872C102.926 2.872 103.528 3.684 103.528 4.818C103.528 6.456 101.848 8.262 98.838 11.258V12ZM107.5 12H113.128V10.936H111.056V2.032H110.076C109.53 2.354 108.872 2.592 107.948 2.76V3.586H109.782V10.936H107.5V12ZM118.592 1.066V1.794H130.87V1.066H118.592ZM118.578 12.042V12.812H130.884V12.042H118.578ZM119.614 2.536V3.222H129.848V2.536H119.614ZM120.216 7.8V8.458H129.162V7.8H120.216ZM119.922 10.6V11.3H129.61V10.6H119.922ZM118.844 6.47V8.472H119.81V7.198H129.596V8.472H130.604V6.47H118.844ZM124.15 0.24V2.942H125.214V0.24H124.15ZM124.15 9.606V12.434H125.214V9.606H124.15ZM121.238 4.44H128.21V5.252H121.238V4.44ZM120.244 3.824V5.868H129.246V3.824H120.244ZM126.236 8.57C127.174 9.046 128.308 9.844 128.896 10.39L129.54 9.844C128.952 9.312 127.818 8.556 126.866 8.08L126.236 8.57ZM120.734 10.096C120.734 9.9 121.322 9.676 121.322 9.676V9.662C122.218 9.41 123.198 8.934 124.136 8.29L123.352 7.982C122.596 8.556 121.56 9.018 121.252 9.144C120.958 9.256 120.706 9.312 120.496 9.312C120.58 9.522 120.692 9.914 120.734 10.096ZM120.734 10.096C121.112 9.97 121.728 9.956 128.392 9.802C128.35 9.648 128.28 9.382 128.252 9.186L121.28 9.284L120.734 9.55V10.096ZM132.844 1.654V2.648H145.178V1.654H132.844ZM135.728 7.268V8.122H142.35V7.268H135.728ZM135.434 9.55V10.432H142.602V9.55H135.434ZM138.444 7.674V12.854H139.452V7.674H138.444ZM133.6 4.118V13.106H134.65V5.098H143.722V4.118H133.6ZM143.358 4.118V11.902C143.358 12.126 143.302 12.196 143.05 12.21C142.798 12.224 141.93 12.224 141.048 12.182C141.202 12.448 141.37 12.854 141.426 13.134C142.574 13.134 143.372 13.12 143.82 12.966C144.282 12.812 144.436 12.518 144.436 11.902V4.118H143.358ZM136.428 5.56C136.778 6.078 137.142 6.792 137.282 7.268L138.164 6.946C138.01 6.484 137.646 5.798 137.268 5.294L136.428 5.56ZM140.712 5.28C140.474 5.882 140.04 6.764 139.69 7.338L140.446 7.59C140.81 7.058 141.244 6.274 141.608 5.546L140.712 5.28ZM138.416 0.253999V4.776H139.578V0.253999H138.416ZM152.682 2.928V13.106H153.774V2.928H152.682ZM146.984 2.298V3.32H159.598V2.298H146.984ZM148.356 5.238V11.496H149.406V6.26H157.554V5.238H148.356ZM157.26 5.238V10.166C157.26 10.362 157.204 10.418 156.952 10.446C156.7 10.446 155.86 10.446 154.908 10.418C155.048 10.712 155.216 11.132 155.272 11.454C156.462 11.454 157.26 11.44 157.736 11.272C158.212 11.104 158.338 10.782 158.338 10.166V5.238H157.26ZM152.066 0.449999C152.458 1.122 152.906 2.046 153.102 2.606L154.18 2.228C153.97 1.682 153.48 0.785999 153.088 0.141999L152.066 0.449999ZM161.264 1.234V2.242H167.704V1.234H161.264ZM164.722 5.322V6.33H167.186V5.322H164.722ZM164.246 1.78V10.628H165.268V1.78H164.246ZM161.866 4.37V11.02H162.818V4.37H161.866ZM161.026 10.782L161.222 11.832C162.972 11.44 165.45 10.866 167.788 10.306L167.69 9.34C165.254 9.886 162.664 10.474 161.026 10.782ZM168.656 2.858V3.838H173.99V2.858H168.656ZM169.132 0.24C168.698 2.634 167.928 4.944 166.766 6.4C167.018 6.554 167.438 6.904 167.62 7.1C168.796 5.49 169.664 3.04 170.182 0.422L169.132 0.24ZM172.044 3.362C171.442 7.8 170.07 10.642 166.766 12.238C166.962 12.462 167.284 12.91 167.382 13.162C170.882 11.314 172.38 8.304 173.094 3.474L172.044 3.362ZM169.104 3.754L168.18 3.922C168.95 8.206 170.42 11.566 173.388 13.134C173.556 12.854 173.878 12.448 174.116 12.238C171.274 10.908 169.79 7.66 169.104 3.754ZM181.298 5.294V6.274H188.158V5.294H181.298ZM181.816 7.618C182.39 8.5 183.09 9.69 183.412 10.432L184.308 9.998C183.972 9.27 183.272 8.136 182.67 7.254L181.816 7.618ZM185.512 3.18V11.804C185.512 12.028 185.442 12.084 185.232 12.098C184.994 12.098 184.238 12.112 183.412 12.07C183.566 12.378 183.72 12.826 183.776 13.106C184.854 13.106 185.568 13.092 185.988 12.938C186.422 12.756 186.562 12.448 186.562 11.818V3.18H185.512ZM180.402 3.04C179.954 4.58 178.974 6.414 177.798 7.548C177.966 7.786 178.204 8.248 178.288 8.5C179.674 7.184 180.794 5.168 181.438 3.334L180.402 3.04ZM176.972 1.766V2.76H188.144V1.766H176.972ZM176.426 1.766V6.89C176.426 8.64 176.356 10.992 175.376 12.588C175.628 12.7 176.09 12.994 176.286 13.19C177.336 11.482 177.49 8.78 177.49 6.876V1.766H176.426ZM179.394 5.952V13.12H180.388V5.056L180.318 5.028L179.394 5.952ZM181.41 0.393999C181.732 0.996 182.11 1.85 182.292 2.368L183.37 2.032C183.174 1.514 182.796 0.715999 182.446 0.0999997L181.41 0.393999ZM199.26 3.194C197.664 7.968 194.612 10.67 189.628 12.112C189.838 12.35 190.16 12.84 190.286 13.092C195.368 11.468 198.56 8.598 200.352 3.502L199.26 3.194ZM192.904 3.25L191.924 3.558C193.702 8.29 196.908 11.65 201.934 13.036C202.102 12.742 202.41 12.294 202.662 12.056C197.762 10.838 194.486 7.59 192.904 3.25ZM189.824 2.718V3.74H202.48V2.718H189.824ZM195.046 0.478C195.466 1.178 195.9 2.102 196.082 2.676L197.23 2.312C197.034 1.724 196.558 0.814 196.138 0.156L195.046 0.478ZM210.236 0.463999V10.74C210.236 12.238 210.642 12.644 212.056 12.644C212.364 12.644 214.394 12.644 214.73 12.644C216.242 12.644 216.508 11.748 216.676 9.13C216.382 9.06 215.976 8.864 215.71 8.668C215.598 11.062 215.472 11.692 214.688 11.692C214.24 11.692 212.476 11.692 212.126 11.692C211.398 11.692 211.244 11.524 211.244 10.768V0.463999H210.236ZM207.744 0.296C206.848 2.452 205.35 4.538 203.796 5.868C203.992 6.12 204.286 6.68 204.398 6.918C206.064 5.364 207.688 3.012 208.724 0.631999L207.744 0.296ZM206.302 3.712V13.12H207.31V2.746L207.296 2.732L206.302 3.712ZM210.824 4.314V5.308H216.256V4.314H210.824ZM220.442 0.981999V1.892H228.436V3.67H220.442V4.58H229.486V0.981999H220.442ZM219.812 0.981999V4.328C219.812 6.596 219.658 9.816 218.062 12.098C218.3 12.21 218.748 12.56 218.916 12.77C220.596 10.348 220.848 6.75 220.848 4.328V0.981999H219.812ZM220.456 5.798V6.736H229.752V5.798H220.456ZM222.556 7.828V8.71H226.35V10.586H222.556V11.454H227.344V7.828H222.556ZM221.996 7.828V12.28H222.962V7.828H221.996ZM229.402 5.798V5.994C229.262 10.124 229.066 11.622 228.758 11.972C228.632 12.126 228.492 12.168 228.226 12.168C227.974 12.168 227.288 12.154 226.532 12.084C226.7 12.364 226.812 12.784 226.84 13.078C227.582 13.12 228.31 13.12 228.716 13.092C229.136 13.05 229.416 12.952 229.668 12.63C230.102 12.126 230.256 10.572 230.452 6.274C230.452 6.134 230.452 5.798 230.452 5.798H229.402ZM239.3 4.496V5.476H244.298V4.496H239.3ZM233.882 7.1V8.038H236.276V13.106H237.256V7.1H233.882ZM233.42 0.296V6.022C233.42 8.192 233.322 10.754 232.524 12.602C232.762 12.742 233.126 13.036 233.294 13.218C234.246 11.23 234.372 8.486 234.372 6.022V0.296H233.42ZM243.99 4.496V4.706C243.402 8.5 241.484 11.16 239.132 12.294C239.356 12.49 239.65 12.896 239.804 13.148C242.352 11.762 244.312 9.032 244.998 4.664L244.354 4.468L244.172 4.496H243.99ZM240.756 5.112L239.902 5.322C240.658 8.948 242.128 11.762 244.802 13.106C244.984 12.826 245.306 12.434 245.53 12.224C242.94 11.104 241.442 8.43 240.756 5.112ZM238.726 1.374V6.148C238.726 8.192 238.6 10.768 237.62 12.602C237.886 12.728 238.264 13.008 238.446 13.176C239.552 11.202 239.72 8.444 239.72 6.148V1.374H238.726ZM236.332 0.618V4.51H233.938V5.462H237.298V0.618H236.332ZM238.726 1.08V2.046H244.928V1.08H238.726ZM251.284 1.36V2.172H254.112V1.36H251.284ZM256.576 1.36V2.172H259.684V1.36H256.576ZM253.748 0.24V2.886H254.672V0.24H253.748ZM256.142 0.24V2.844H257.08V0.24H256.142ZM256.604 3.88H258.214V5.168H256.604V3.88ZM255.792 3.166V5.896H259.054V3.166H255.792ZM252.614 3.88H254.196V5.168H252.614V3.88ZM251.816 3.166V5.896H255.036V3.166H251.816ZM252.698 8.64V9.396H258.732V8.64H252.698ZM252.698 10.222V10.964H258.732V10.222H252.698ZM252.698 11.818V12.616H259.586V11.818H252.698ZM255.218 7.478V12.364H256.142V7.478H255.218ZM253.146 7.086H252.67L252.194 7.59V13.134H253.146V7.814H259.348V7.086H253.146ZM253.062 5.784C252.544 6.932 251.662 8.038 250.752 8.78C250.92 8.976 251.214 9.424 251.312 9.606C252.306 8.752 253.3 7.422 253.93 6.064L253.062 5.784ZM254.91 6.274C255.106 6.736 255.344 7.394 255.442 7.8L256.366 7.492C256.268 7.1 256.03 6.484 255.806 6.008L254.91 6.274ZM247.028 2.956V3.922H251.438V2.956H247.028ZM248.988 0.24V13.106H249.912V0.24H248.988ZM248.918 3.586C248.512 5.504 247.602 7.94 246.692 9.186C246.86 9.438 247.112 9.9 247.224 10.208C248.162 8.78 249.086 6.022 249.52 3.824L248.918 3.586ZM249.87 4.608L249.38 5C249.716 5.504 250.584 7.058 250.878 7.688L251.48 6.932C251.242 6.54 250.164 4.958 249.87 4.608ZM268.448 4.986V6.008H273.922V4.986H268.448ZM271.248 5.672V13.078H272.284V5.672H271.248ZM261.896 1.626V6.526C261.896 8.36 261.812 10.768 260.916 12.49C261.154 12.602 261.588 12.966 261.77 13.148C262.792 11.314 262.918 8.514 262.918 6.526V1.626H261.896ZM272.956 0.422C271.808 0.954 269.75 1.402 268 1.654C268.126 1.892 268.266 2.284 268.322 2.536C270.114 2.298 272.284 1.892 273.67 1.304L272.956 0.422ZM262.47 3.768V4.72H265.69V6.96H262.47V7.912H266.712V3.768H262.47ZM266.684 0.533999C265.592 1.052 263.576 1.43 261.896 1.626C262.022 1.878 262.162 2.242 262.204 2.494C263.926 2.326 266.04 1.99 267.37 1.416L266.684 0.533999ZM268 1.654V6.316C268 8.262 267.832 10.726 266.166 12.448C266.404 12.588 266.824 12.952 266.992 13.148C268.798 11.328 269.064 8.444 269.064 6.33V1.654H268ZM275.686 2.06V3.054H287.95V2.06H275.686ZM278.99 7.058V7.968H285.654V7.058H278.99ZM285.276 4.678V11.804C285.276 12.014 285.192 12.084 284.954 12.098C284.702 12.098 283.848 12.112 282.91 12.07C283.064 12.364 283.218 12.798 283.26 13.092C284.464 13.092 285.248 13.092 285.696 12.924C286.172 12.756 286.298 12.434 286.298 11.818V4.678H285.276ZM280.264 0.24C279.508 3.012 277.87 5.952 275.406 7.66C275.602 7.856 275.938 8.234 276.078 8.472C278.71 6.61 280.39 3.53 281.328 0.492L280.264 0.24ZM278.906 9.424V10.334H285.654V9.424H278.906ZM278.92 4.678V5.63H285.57V4.678H278.92ZM278.36 4.678V8.374C278.36 9.704 278.234 11.258 277.058 12.378C277.268 12.532 277.66 12.966 277.8 13.204C279.172 11.916 279.41 9.942 279.41 8.388V4.678H278.36Z" fill="#9A9A9A"/>
</svg>
