<svg width="331" height="14" viewBox="0 0 331 14" fill="none" xmlns="http://www.w3.org/2000/svg">
<path d="M0.896 3.194V4.258H13.118V3.194H0.896ZM3.164 9.438V10.502H10.808V9.438H3.164ZM6.426 0.253999V13.12H7.532V0.253999H6.426ZM5.418 3.544C4.452 6.19 2.562 8.794 0.518 10.054C0.77 10.264 1.106 10.642 1.288 10.908C3.402 9.438 5.306 6.764 6.37 3.838L5.418 3.544ZM8.512 3.586L7.574 3.866C8.624 6.778 10.514 9.466 12.684 10.866C12.866 10.572 13.23 10.166 13.51 9.956C11.368 8.752 9.464 6.218 8.512 3.586ZM24.85 2.27C24.71 2.998 24.388 4.09 24.136 4.762L24.766 4.972C25.046 4.342 25.368 3.334 25.648 2.494L24.85 2.27ZM21.994 2.466C22.316 3.096 22.624 3.936 22.722 4.496L23.408 4.244C23.296 3.698 22.988 2.858 22.652 2.242L21.994 2.466ZM20.202 0.911999V13.148H21.154V1.85H26.768V0.911999H20.202ZM26.432 0.911999V11.944C26.432 12.14 26.376 12.196 26.194 12.21C26.012 12.21 25.438 12.224 24.836 12.196C24.976 12.448 25.102 12.882 25.13 13.12C25.998 13.134 26.572 13.106 26.922 12.952C27.272 12.784 27.384 12.518 27.384 11.944V0.911999H26.432ZM21.504 4.608V5.434H26.124V4.608H21.504ZM21.658 6.918V7.758H25.942V6.918H21.658ZM23.002 5.686C23.24 6.092 23.492 6.666 23.604 7.03L24.374 6.708C24.262 6.358 23.982 5.812 23.744 5.406L23.002 5.686ZM18.312 5.854C18.676 6.736 19.082 7.898 19.222 8.598L20.02 8.276C19.838 7.618 19.446 6.47 19.054 5.602L18.312 5.854ZM16.926 9.354C17.094 10.306 17.248 11.552 17.262 12.364L18.06 12.182C18.018 11.356 17.85 10.138 17.668 9.2L16.926 9.354ZM15.456 9.256C15.33 10.39 15.12 11.65 14.798 12.504C15.008 12.56 15.4 12.7 15.582 12.798C15.862 11.93 16.128 10.614 16.268 9.396L15.456 9.256ZM15.134 5.49C15.134 5.28 15.736 4.972 15.736 4.972V4.958C16.646 3.838 17.57 2.2 18.27 0.645999L17.388 0.253999C16.828 1.78 15.876 3.39 15.582 3.81C15.302 4.23 15.05 4.524 14.826 4.58C14.938 4.832 15.092 5.294 15.134 5.49ZM15.134 5.49C15.344 5.378 15.708 5.308 17.892 5.056C17.906 4.86 17.934 4.51 17.976 4.258L15.582 4.468L15.12 4.762L15.134 5.49ZM15.218 8.64C15.218 8.444 15.834 8.15 15.834 8.15V8.122C17.122 6.722 18.452 4.748 19.488 2.816L18.662 2.326C17.78 4.244 16.366 6.26 15.932 6.778C15.512 7.31 15.204 7.674 14.924 7.73C15.036 7.982 15.19 8.444 15.218 8.64ZM15.218 8.64C15.484 8.5 15.932 8.388 19.376 7.856C19.362 7.66 19.362 7.31 19.39 7.072L15.666 7.59L15.19 7.912L15.218 8.64ZM18.452 9.074C18.746 9.928 19.096 11.062 19.236 11.818L19.978 11.552C19.824 10.824 19.474 9.704 19.152 8.836L18.452 9.074ZM22.176 7.324V9.13C22.176 10.054 22.386 10.39 23.31 10.39C23.52 10.39 24.836 10.39 25.13 10.39C25.466 10.39 25.844 10.39 26.026 10.334C25.998 10.124 25.97 9.788 25.956 9.55C25.732 9.606 25.34 9.606 25.102 9.606C24.85 9.606 23.632 9.606 23.38 9.606C23.1 9.606 23.044 9.494 23.044 9.144V7.324H22.176ZM29.372 2.886V3.852H34.818V2.886H29.372ZM29.204 10.684L29.456 11.734C30.926 11.356 32.9 10.866 34.748 10.376L34.65 9.41C32.662 9.9 30.576 10.404 29.204 10.684ZM29.932 4.664C30.24 6.246 30.534 8.304 30.604 9.676L31.486 9.508C31.402 8.122 31.108 6.092 30.758 4.496L29.932 4.664ZM33.166 4.328C32.984 6.064 32.606 8.598 32.242 10.068L33.012 10.264C33.404 8.794 33.866 6.358 34.16 4.51L33.166 4.328ZM31.01 0.604C31.388 1.262 31.794 2.158 31.948 2.732L32.9 2.41C32.732 1.836 32.312 0.967999 31.906 0.323999L31.01 0.604ZM37.982 3.152V4.146H42V3.152H37.982ZM35.574 11.454V12.448H40.866V11.454H35.574ZM37.366 0.24V7.38H38.43V0.24H37.366ZM35.084 6.946V13.106H36.106V7.926H40.334V13.05H41.398V6.946H35.084ZM47.446 3.32V4.16H56.07V3.32H47.446ZM48.146 7.17V7.968H55.426V7.17H48.146ZM47.544 9.088V9.928H55.944V9.088H47.544ZM50.974 0.253999V11.314H51.968V0.253999H50.974ZM48.356 1.444V2.284H54.152V5.252H48.258V6.092H55.104V1.444H48.356ZM43.722 1.122V2.06H46.928V1.122H43.722ZM44.744 5.126L44.618 6.05H46.886V5.126H44.744ZM46.536 5.126V5.322C46.172 8.864 45.08 11.188 43.344 12.42C43.582 12.56 43.96 12.924 44.128 13.12C45.878 11.776 47.082 9.228 47.516 5.252L46.914 5.098L46.732 5.126H46.536ZM44.716 7.198L43.918 7.492C45.234 11.93 47.936 12.784 51.968 12.784H55.902C55.958 12.504 56.14 12.042 56.308 11.818C55.58 11.832 52.556 11.832 51.996 11.832C48.426 11.832 45.836 11.118 44.716 7.198ZM44.184 6.498C44.184 6.288 44.94 5.966 44.94 5.966V5.952C45.808 4.804 46.746 3.138 47.558 1.402L46.886 0.954L46.494 1.136V1.206C45.92 2.746 44.94 4.384 44.646 4.804C44.366 5.252 44.016 5.588 43.764 5.644C43.904 5.868 44.114 6.288 44.184 6.498ZM65.814 1.85V5.35H66.836V1.85H65.814ZM64.134 6.75V12.14C64.134 12.294 64.092 12.336 63.924 12.35C63.756 12.35 63.21 12.35 62.622 12.336C62.734 12.574 62.874 12.91 62.916 13.134C63.728 13.134 64.274 13.12 64.624 12.994C64.96 12.868 65.058 12.63 65.058 12.154V6.75H64.134ZM68.208 0.226C68.04 0.618 67.69 1.234 67.424 1.626L68.152 1.892C68.446 1.528 68.81 1.038 69.132 0.505999L68.208 0.226ZM63.686 0.533999C64.036 0.967999 64.386 1.542 64.54 1.934L65.338 1.598C65.184 1.206 64.792 0.631999 64.442 0.24L63.686 0.533999ZM68.18 6.624C68.74 7.002 69.398 7.576 69.692 8.01L70.336 7.478C70.028 7.072 69.37 6.512 68.796 6.148L68.18 6.624ZM62.104 10.306L62.23 11.16C63.462 10.978 65.044 10.74 66.598 10.502L66.57 9.718C64.918 9.956 63.252 10.166 62.104 10.306ZM65.842 6.064C65.044 6.358 63.588 6.596 62.356 6.736C62.454 6.932 62.566 7.226 62.608 7.408C63.882 7.282 65.422 7.044 66.472 6.708L65.842 6.064ZM62.664 1.626V2.396H70.14V1.626H62.664ZM63.126 3.306V4.034H69.762V3.306H63.126ZM62.16 5.014V5.812H70.434V5.014H62.16ZM62.146 8.178V8.99H70.462V8.178H62.146ZM66.738 6.148C66.878 10.558 67.732 13.232 69.454 13.232C70.154 13.232 70.49 12.826 70.644 11.552C70.434 11.468 70.154 11.342 69.972 11.16C69.902 12.07 69.776 12.378 69.538 12.378C68.558 12.392 67.704 10.278 67.648 6.148H66.738ZM69.076 9.298C68.362 10.656 66.934 11.776 65.478 12.406C65.66 12.56 65.898 12.812 66.01 12.98C67.522 12.294 69.034 11.09 69.846 9.662L69.076 9.298ZM58.17 4.482V5.322H61.754V4.482H58.17ZM58.17 6.358V7.198H61.754V6.358H58.17ZM57.666 2.62V3.502H62.062V2.62H57.666ZM58.576 8.248V9.102H60.914V11.454H58.576V12.322H61.726V8.248H58.576ZM58.142 8.248V12.98H58.926V8.248H58.142ZM58.996 0.589999C59.304 1.192 59.598 1.99 59.696 2.494L60.522 2.158C60.424 1.682 60.088 0.911999 59.78 0.323999L58.996 0.589999ZM75.88 1.794V2.774H84.868V1.794H75.88ZM77.266 5.028H83.384V7.128H77.266V5.028ZM76.3 4.132V8.024H84.406V4.132H76.3ZM77.168 8.304L76.3 8.598C77.784 11.16 80.654 12.616 84.364 13.148C84.504 12.854 84.77 12.434 84.994 12.21C81.354 11.804 78.484 10.502 77.168 8.304ZM79.772 0.296V6.484C79.772 8.85 79.534 11.244 75.376 12.294C75.586 12.518 75.88 12.938 76.006 13.176C80.346 11.888 80.808 9.2 80.808 6.498V0.296H79.772ZM75.278 0.211999C74.466 2.34 73.094 4.426 71.68 5.756C71.876 6.008 72.17 6.554 72.268 6.792C73.822 5.238 75.32 2.886 76.272 0.519999L75.278 0.211999ZM73.808 3.88V13.19H74.816V2.9L74.802 2.886L73.808 3.88ZM88.41 1.234V2.242H97.468V1.234H88.41ZM88.41 4.496V5.49H97.454V4.496H88.41ZM88.34 7.842V8.836H97.482V7.842H88.34ZM87.822 1.234V6.302C87.822 8.276 87.668 10.768 86.128 12.504C86.352 12.644 86.772 12.994 86.94 13.204C88.606 11.342 88.858 8.444 88.858 6.316V1.234H87.822ZM97.048 1.234V11.692C97.048 11.958 96.95 12.042 96.684 12.056C96.418 12.056 95.466 12.07 94.472 12.028C94.626 12.308 94.794 12.77 94.836 13.05C96.166 13.064 96.978 13.05 97.454 12.882C97.916 12.7 98.084 12.378 98.084 11.692V1.234H97.048ZM92.218 1.612V12.994H93.282V1.612H92.218ZM101.36 12H102.662V7.394H106.568V6.316H102.662V2.83H107.268V1.738H101.36V12ZM109.253 12H110.527V4.398H109.253V12ZM109.897 2.83C110.387 2.83 110.751 2.508 110.751 1.976C110.751 1.486 110.387 1.164 109.897 1.164C109.393 1.164 109.043 1.486 109.043 1.976C109.043 2.508 109.393 2.83 109.897 2.83ZM113.388 12H114.662V7.128C115.166 5.826 115.95 5.364 116.58 5.364C116.888 5.364 117.056 5.406 117.322 5.49L117.56 4.37C117.308 4.258 117.084 4.216 116.748 4.216C115.894 4.216 115.11 4.818 114.592 5.784H114.55L114.424 4.398H113.388V12ZM121.97 12.196C123.006 12.196 123.804 11.846 124.476 11.412L124.014 10.558C123.454 10.936 122.852 11.174 122.124 11.174C120.668 11.174 119.688 10.124 119.59 8.514H124.714C124.756 8.318 124.77 8.052 124.77 7.786C124.77 5.602 123.678 4.216 121.746 4.216C119.996 4.216 118.33 5.742 118.33 8.22C118.33 10.712 119.94 12.196 121.97 12.196ZM119.576 7.59C119.744 6.092 120.696 5.238 121.76 5.238C122.964 5.238 123.65 6.064 123.65 7.59H119.576ZM127.064 12H128.338V3.208C128.338 2.214 128.688 1.71 129.416 1.71C129.696 1.71 129.99 1.78 130.284 1.906L130.55 0.926C130.2 0.785999 129.752 0.674 129.29 0.674C127.778 0.674 127.064 1.654 127.064 3.18V12ZM126.028 5.434H129.962V4.398H127.134L126.028 4.482V5.434ZM134.463 12.196C136.325 12.196 137.977 10.726 137.977 8.22C137.977 5.672 136.325 4.216 134.463 4.216C132.587 4.216 130.935 5.672 130.935 8.22C130.935 10.726 132.587 12.196 134.463 12.196ZM134.463 11.132C133.133 11.132 132.251 9.956 132.251 8.22C132.251 6.456 133.133 5.28 134.463 5.28C135.779 5.28 136.661 6.456 136.661 8.22C136.661 9.956 135.779 11.132 134.463 11.132ZM138.901 12H140.245L141.267 10.222C141.519 9.76 141.771 9.298 142.037 8.864H142.107C142.387 9.298 142.667 9.774 142.933 10.222L144.053 12H145.439L142.947 8.164L145.243 4.398H143.913L142.989 6.064C142.751 6.498 142.527 6.918 142.303 7.352H142.247C141.981 6.918 141.729 6.498 141.491 6.064L140.469 4.398H139.097L141.393 8.038L138.901 12ZM157.068 0.282C157.138 6.918 158.37 13.134 161.156 13.134C162.22 13.134 162.626 12.448 162.808 10.026C162.514 9.928 162.122 9.676 161.884 9.438C161.8 11.3 161.646 12.042 161.24 12.042C159.532 12.042 158.16 6.68 158.188 0.282H157.068ZM159.028 0.94C159.896 1.346 160.918 2.004 161.422 2.48L162.066 1.738C161.548 1.276 160.512 0.659999 159.644 0.296L159.028 0.94ZM160.862 4.524C159.756 8.052 157.74 10.74 154.828 12.308C155.052 12.504 155.472 12.924 155.626 13.134C158.566 11.37 160.68 8.556 161.898 4.776L160.862 4.524ZM150.292 2.48V3.516H162.458V2.48H150.292ZM150.222 11.09L150.418 12.168C152.056 11.818 154.352 11.314 156.494 10.838L156.41 9.83C154.128 10.32 151.748 10.796 150.222 11.09ZM152.07 5.672H154.926V8.122H152.07V5.672ZM151.104 4.762V9.018H155.962V4.762H151.104ZM168.912 12.196C170.242 12.196 171.236 11.664 172.048 10.712L171.348 9.9C170.69 10.628 169.934 11.048 168.968 11.048C167.008 11.048 165.776 9.438 165.776 6.848C165.776 4.286 167.064 2.69 169.01 2.69C169.878 2.69 170.564 3.082 171.096 3.656L171.81 2.816C171.208 2.158 170.242 1.556 168.996 1.556C166.392 1.556 164.446 3.572 164.446 6.876C164.446 10.208 166.35 12.196 168.912 12.196ZM174.13 12H175.404V6.484C176.16 5.728 176.706 5.322 177.476 5.322C178.484 5.322 178.918 5.924 178.918 7.352V12H180.206V7.184C180.206 5.252 179.478 4.216 177.882 4.216C176.832 4.216 176.062 4.79 175.362 5.476L175.404 3.908V0.87H174.13V12ZM182.914 12H184.188V7.128C184.692 5.826 185.476 5.364 186.106 5.364C186.414 5.364 186.582 5.406 186.848 5.49L187.086 4.37C186.834 4.258 186.61 4.216 186.274 4.216C185.42 4.216 184.636 4.818 184.118 5.784H184.076L183.95 4.398H182.914V12ZM191.384 12.196C193.246 12.196 194.898 10.726 194.898 8.22C194.898 5.672 193.246 4.216 191.384 4.216C189.508 4.216 187.856 5.672 187.856 8.22C187.856 10.726 189.508 12.196 191.384 12.196ZM191.384 11.132C190.054 11.132 189.172 9.956 189.172 8.22C189.172 6.456 190.054 5.28 191.384 5.28C192.7 5.28 193.582 6.456 193.582 8.22C193.582 9.956 192.7 11.132 191.384 11.132ZM197.201 12H198.475V6.484C199.161 5.714 199.805 5.322 200.379 5.322C201.359 5.322 201.807 5.924 201.807 7.352V12H203.081V6.484C203.795 5.714 204.397 5.322 204.985 5.322C205.965 5.322 206.413 5.924 206.413 7.352V12H207.687V7.184C207.687 5.252 206.931 4.216 205.377 4.216C204.453 4.216 203.655 4.818 202.857 5.658C202.563 4.762 201.933 4.216 200.771 4.216C199.861 4.216 199.063 4.79 198.405 5.504H198.363L198.237 4.398H197.201V12ZM213.507 12.196C214.543 12.196 215.341 11.846 216.013 11.412L215.551 10.558C214.991 10.936 214.389 11.174 213.661 11.174C212.205 11.174 211.225 10.124 211.127 8.514H216.251C216.293 8.318 216.307 8.052 216.307 7.786C216.307 5.602 215.215 4.216 213.283 4.216C211.533 4.216 209.867 5.742 209.867 8.22C209.867 10.712 211.477 12.196 213.507 12.196ZM211.113 7.59C211.281 6.092 212.233 5.238 213.297 5.238C214.501 5.238 215.187 6.064 215.187 7.59H211.113ZM218.207 1.15C218.837 1.696 219.579 2.522 219.915 3.068L220.629 2.438C220.265 1.906 219.495 1.136 218.865 0.604L218.207 1.15ZM217.647 4.916C218.305 5.392 219.117 6.106 219.495 6.596L220.153 5.938C219.761 5.462 218.935 4.79 218.277 4.342L217.647 4.916ZM217.941 12.14L218.739 12.672C219.313 11.44 219.999 9.76 220.517 8.346L219.803 7.828C219.257 9.326 218.487 11.104 217.941 12.14ZM220.951 8.682V9.452H226.411V8.682H220.951ZM222.057 7.072V7.814H225.459V7.072H222.057ZM220.503 11.874L220.643 12.714C222.211 12.532 224.507 12.294 226.705 12.042V11.258C224.409 11.496 222.029 11.748 220.503 11.874ZM221.371 9.97C221.665 10.474 221.945 11.174 222.057 11.622L222.729 11.328C222.603 10.894 222.309 10.222 222.001 9.718L221.371 9.97ZM225.305 9.662C225.137 10.222 224.801 11.034 224.549 11.538L225.151 11.776C225.417 11.3 225.739 10.586 226.005 9.928L225.305 9.662ZM223.737 0.827999V1.584H226.229V0.827999H223.737ZM226.019 0.827999V0.981999C225.921 3.306 225.823 4.146 225.683 4.356C225.613 4.468 225.543 4.496 225.417 4.482C225.305 4.482 225.081 4.482 224.787 4.454C224.885 4.636 224.941 4.972 224.955 5.182C225.235 5.21 225.529 5.21 225.711 5.182C225.963 5.154 226.131 5.084 226.271 4.874C226.509 4.552 226.621 3.67 226.719 1.206C226.719 1.08 226.719 0.827999 226.719 0.827999H226.019ZM223.009 0.24C222.547 0.589999 221.707 0.996 220.979 1.248C221.063 1.43 221.175 1.71 221.231 1.892C222.015 1.64 222.925 1.276 223.597 0.841999L223.009 0.24ZM222.295 2.48C222.603 3.18 222.911 4.104 222.995 4.72L223.667 4.468C223.555 3.866 223.247 2.956 222.911 2.256L222.295 2.48ZM223.261 7.506V11.846H224.031V7.506H223.261ZM220.951 5.434C221.119 5.238 221.427 5.042 223.317 4.02C223.233 3.88 223.093 3.6 223.009 3.39L221.133 4.314L220.853 4.65L220.951 5.434ZM223.709 4.692C222.981 5.728 221.637 6.666 220.419 7.212C220.601 7.422 220.811 7.716 220.937 7.94C222.169 7.31 223.513 6.218 224.325 5.028L223.709 4.692ZM223.387 5.728C224.437 6.26 225.739 7.1 226.383 7.688L226.845 7.044C226.173 6.442 224.871 5.644 223.835 5.154L223.387 5.728ZM227.279 1.794V9.718H228.063V1.794H227.279ZM229.085 0.309999V11.832C229.085 12.042 229.001 12.098 228.819 12.098C228.637 12.112 228.007 12.112 227.349 12.084C227.461 12.364 227.559 12.77 227.587 12.994C228.539 13.008 229.127 12.98 229.477 12.84C229.813 12.686 229.939 12.42 229.939 11.832V0.309999H229.085ZM224.563 1.234C224.521 2.578 224.339 3.74 223.639 4.398C223.821 4.496 224.031 4.734 224.129 4.902C224.969 4.104 225.207 2.788 225.277 1.234H224.563ZM220.951 5.434C220.951 5.154 221.721 4.748 221.721 4.748V1.248H220.979V3.992C220.979 4.51 220.783 4.65 220.615 4.734C220.741 4.902 220.895 5.238 220.951 5.434ZM235.161 8.164H241.713V8.836H235.161V8.164ZM235.161 9.452H241.713V10.138H235.161V9.452ZM235.161 6.89H241.713V7.548H235.161V6.89ZM234.167 6.246V10.768H242.749V6.246H234.167ZM239.291 10.39V11.762C239.291 12.714 239.641 12.952 240.999 12.952C241.265 12.952 243.113 12.952 243.407 12.952C244.443 12.952 244.751 12.602 244.863 11.16C244.583 11.104 244.191 10.964 243.967 10.824C243.925 11.972 243.827 12.112 243.309 12.112C242.889 12.112 241.377 12.112 241.083 12.112C240.439 12.112 240.327 12.07 240.327 11.762V10.39H239.291ZM236.309 10.432C235.973 11.622 235.021 12.084 232.039 12.308C232.207 12.504 232.445 12.896 232.515 13.12C235.791 12.784 236.939 12.098 237.345 10.432H236.309ZM239.823 2.34V3.012H243.995V2.34H239.823ZM239.697 1.066V1.794H244.695V1.066H239.697ZM235.091 1.01V2.326H235.945V1.01H235.091ZM235.091 3.824V5.168H235.945V3.824H235.091ZM233.257 2.088V2.746H236.995V3.53H233.257V4.174H237.905V2.088H233.257ZM242.791 4.146H243.687V5.168H242.791V4.146ZM241.279 4.146H242.175V5.168H241.279V4.146ZM239.809 4.146H240.663V5.168H239.809V4.146ZM239.053 3.558V5.756H244.471V3.558H239.053ZM239.767 0.253999C239.487 1.038 238.955 1.934 238.087 2.62C238.311 2.732 238.633 3.012 238.801 3.222C239.767 2.396 240.341 1.388 240.705 0.393999L239.767 0.253999ZM238.297 0.715999H232.697V5.658H238.409V4.986H233.621V1.402H238.297V0.715999ZM248.433 1.738H250.939V3.866H248.433V1.738ZM247.495 0.87V4.734H251.905V0.87H247.495ZM254.425 1.738H257.029V3.866H254.425V1.738ZM253.487 0.87V4.734H258.009V0.87H253.487ZM246.459 6.064V6.974H259.031V6.064H246.459ZM248.251 11.79V12.658H251.653V11.79H248.251ZM253.823 11.79V12.658H257.351V11.79H253.823ZM247.775 8.752V13.106H248.713V9.606H251.107V13.036H252.073V8.752H247.775ZM253.375 8.752V13.106H254.299V9.606H256.805V13.036H257.785V8.752H253.375ZM251.821 4.482C251.051 6.19 249.175 8.052 246.137 9.158C246.347 9.326 246.613 9.69 246.725 9.928C249.903 8.682 251.863 6.708 252.857 4.678L251.821 4.482ZM254.355 5.21C255.055 5.476 255.923 5.938 256.357 6.288L256.903 5.7C256.455 5.35 255.573 4.916 254.873 4.678L254.355 5.21ZM253.557 6.792C255.475 7.66 257.337 8.836 258.415 9.83L259.143 9.2C258.023 8.192 256.049 7.03 254.117 6.176L253.557 6.792ZM261.047 1.15C261.677 1.696 262.419 2.522 262.755 3.068L263.469 2.438C263.105 1.906 262.335 1.136 261.705 0.604L261.047 1.15ZM260.487 4.916C261.145 5.392 261.957 6.106 262.335 6.596L262.993 5.938C262.601 5.462 261.775 4.79 261.117 4.342L260.487 4.916ZM260.781 12.14L261.579 12.672C262.153 11.44 262.839 9.76 263.357 8.346L262.643 7.828C262.097 9.326 261.327 11.104 260.781 12.14ZM263.791 8.682V9.452H269.251V8.682H263.791ZM264.897 7.072V7.814H268.299V7.072H264.897ZM263.343 11.874L263.483 12.714C265.051 12.532 267.347 12.294 269.545 12.042V11.258C267.249 11.496 264.869 11.748 263.343 11.874ZM264.211 9.97C264.505 10.474 264.785 11.174 264.897 11.622L265.569 11.328C265.443 10.894 265.149 10.222 264.841 9.718L264.211 9.97ZM268.145 9.662C267.977 10.222 267.641 11.034 267.389 11.538L267.991 11.776C268.257 11.3 268.579 10.586 268.845 9.928L268.145 9.662ZM266.577 0.827999V1.584H269.069V0.827999H266.577ZM268.859 0.827999V0.981999C268.761 3.306 268.663 4.146 268.523 4.356C268.453 4.468 268.383 4.496 268.257 4.482C268.145 4.482 267.921 4.482 267.627 4.454C267.725 4.636 267.781 4.972 267.795 5.182C268.075 5.21 268.369 5.21 268.551 5.182C268.803 5.154 268.971 5.084 269.111 4.874C269.349 4.552 269.461 3.67 269.559 1.206C269.559 1.08 269.559 0.827999 269.559 0.827999H268.859ZM265.849 0.24C265.387 0.589999 264.547 0.996 263.819 1.248C263.903 1.43 264.015 1.71 264.071 1.892C264.855 1.64 265.765 1.276 266.437 0.841999L265.849 0.24ZM265.135 2.48C265.443 3.18 265.751 4.104 265.835 4.72L266.507 4.468C266.395 3.866 266.087 2.956 265.751 2.256L265.135 2.48ZM266.101 7.506V11.846H266.871V7.506H266.101ZM263.791 5.434C263.959 5.238 264.267 5.042 266.157 4.02C266.073 3.88 265.933 3.6 265.849 3.39L263.973 4.314L263.693 4.65L263.791 5.434ZM266.549 4.692C265.821 5.728 264.477 6.666 263.259 7.212C263.441 7.422 263.651 7.716 263.777 7.94C265.009 7.31 266.353 6.218 267.165 5.028L266.549 4.692ZM266.227 5.728C267.277 6.26 268.579 7.1 269.223 7.688L269.685 7.044C269.013 6.442 267.711 5.644 266.675 5.154L266.227 5.728ZM270.119 1.794V9.718H270.903V1.794H270.119ZM271.925 0.309999V11.832C271.925 12.042 271.841 12.098 271.659 12.098C271.477 12.112 270.847 12.112 270.189 12.084C270.301 12.364 270.399 12.77 270.427 12.994C271.379 13.008 271.967 12.98 272.317 12.84C272.653 12.686 272.779 12.42 272.779 11.832V0.309999H271.925ZM267.403 1.234C267.361 2.578 267.179 3.74 266.479 4.398C266.661 4.496 266.871 4.734 266.969 4.902C267.809 4.104 268.047 2.788 268.117 1.234H267.403ZM263.791 5.434C263.791 5.154 264.561 4.748 264.561 4.748V1.248H263.819V3.992C263.819 4.51 263.623 4.65 263.455 4.734C263.581 4.902 263.735 5.238 263.791 5.434ZM278.001 8.164H284.553V8.836H278.001V8.164ZM278.001 9.452H284.553V10.138H278.001V9.452ZM278.001 6.89H284.553V7.548H278.001V6.89ZM277.007 6.246V10.768H285.589V6.246H277.007ZM282.131 10.39V11.762C282.131 12.714 282.481 12.952 283.839 12.952C284.105 12.952 285.953 12.952 286.247 12.952C287.283 12.952 287.591 12.602 287.703 11.16C287.423 11.104 287.031 10.964 286.807 10.824C286.765 11.972 286.667 12.112 286.149 12.112C285.729 12.112 284.217 12.112 283.923 12.112C283.279 12.112 283.167 12.07 283.167 11.762V10.39H282.131ZM279.149 10.432C278.813 11.622 277.861 12.084 274.879 12.308C275.047 12.504 275.285 12.896 275.355 13.12C278.631 12.784 279.779 12.098 280.185 10.432H279.149ZM282.663 2.34V3.012H286.835V2.34H282.663ZM282.537 1.066V1.794H287.535V1.066H282.537ZM277.931 1.01V2.326H278.785V1.01H277.931ZM277.931 3.824V5.168H278.785V3.824H277.931ZM276.097 2.088V2.746H279.835V3.53H276.097V4.174H280.745V2.088H276.097ZM285.631 4.146H286.527V5.168H285.631V4.146ZM284.119 4.146H285.015V5.168H284.119V4.146ZM282.649 4.146H283.503V5.168H282.649V4.146ZM281.893 3.558V5.756H287.311V3.558H281.893ZM282.607 0.253999C282.327 1.038 281.795 1.934 280.927 2.62C281.151 2.732 281.473 3.012 281.641 3.222C282.607 2.396 283.181 1.388 283.545 0.393999L282.607 0.253999ZM281.137 0.715999H275.537V5.658H281.249V4.986H276.461V1.402H281.137V0.715999ZM289.481 3.194V4.258H301.703V3.194H289.481ZM291.749 9.438V10.502H299.393V9.438H291.749ZM295.011 0.253999V13.12H296.117V0.253999H295.011ZM294.003 3.544C293.037 6.19 291.147 8.794 289.103 10.054C289.355 10.264 289.691 10.642 289.873 10.908C291.987 9.438 293.891 6.764 294.955 3.838L294.003 3.544ZM297.097 3.586L296.159 3.866C297.209 6.778 299.099 9.466 301.269 10.866C301.451 10.572 301.815 10.166 302.095 9.956C299.953 8.752 298.049 6.218 297.097 3.586ZM313.435 2.27C313.295 2.998 312.973 4.09 312.721 4.762L313.351 4.972C313.631 4.342 313.953 3.334 314.233 2.494L313.435 2.27ZM310.579 2.466C310.901 3.096 311.209 3.936 311.307 4.496L311.993 4.244C311.881 3.698 311.573 2.858 311.237 2.242L310.579 2.466ZM308.787 0.911999V13.148H309.739V1.85H315.353V0.911999H308.787ZM315.017 0.911999V11.944C315.017 12.14 314.961 12.196 314.779 12.21C314.597 12.21 314.023 12.224 313.421 12.196C313.561 12.448 313.687 12.882 313.715 13.12C314.583 13.134 315.157 13.106 315.507 12.952C315.857 12.784 315.969 12.518 315.969 11.944V0.911999H315.017ZM310.089 4.608V5.434H314.709V4.608H310.089ZM310.243 6.918V7.758H314.527V6.918H310.243ZM311.587 5.686C311.825 6.092 312.077 6.666 312.189 7.03L312.959 6.708C312.847 6.358 312.567 5.812 312.329 5.406L311.587 5.686ZM306.897 5.854C307.261 6.736 307.667 7.898 307.807 8.598L308.605 8.276C308.423 7.618 308.031 6.47 307.639 5.602L306.897 5.854ZM305.511 9.354C305.679 10.306 305.833 11.552 305.847 12.364L306.645 12.182C306.603 11.356 306.435 10.138 306.253 9.2L305.511 9.354ZM304.041 9.256C303.915 10.39 303.705 11.65 303.383 12.504C303.593 12.56 303.985 12.7 304.167 12.798C304.447 11.93 304.713 10.614 304.853 9.396L304.041 9.256ZM303.719 5.49C303.719 5.28 304.321 4.972 304.321 4.972V4.958C305.231 3.838 306.155 2.2 306.855 0.645999L305.973 0.253999C305.413 1.78 304.461 3.39 304.167 3.81C303.887 4.23 303.635 4.524 303.411 4.58C303.523 4.832 303.677 5.294 303.719 5.49ZM303.719 5.49C303.929 5.378 304.293 5.308 306.477 5.056C306.491 4.86 306.519 4.51 306.561 4.258L304.167 4.468L303.705 4.762L303.719 5.49ZM303.803 8.64C303.803 8.444 304.419 8.15 304.419 8.15V8.122C305.707 6.722 307.037 4.748 308.073 2.816L307.247 2.326C306.365 4.244 304.951 6.26 304.517 6.778C304.097 7.31 303.789 7.674 303.509 7.73C303.621 7.982 303.775 8.444 303.803 8.64ZM303.803 8.64C304.069 8.5 304.517 8.388 307.961 7.856C307.947 7.66 307.947 7.31 307.975 7.072L304.251 7.59L303.775 7.912L303.803 8.64ZM307.037 9.074C307.331 9.928 307.681 11.062 307.821 11.818L308.563 11.552C308.409 10.824 308.059 9.704 307.737 8.836L307.037 9.074ZM310.761 7.324V9.13C310.761 10.054 310.971 10.39 311.895 10.39C312.105 10.39 313.421 10.39 313.715 10.39C314.051 10.39 314.429 10.39 314.611 10.334C314.583 10.124 314.555 9.788 314.541 9.55C314.317 9.606 313.925 9.606 313.687 9.606C313.435 9.606 312.217 9.606 311.965 9.606C311.685 9.606 311.629 9.494 311.629 9.144V7.324H310.761ZM317.957 2.886V3.852H323.403V2.886H317.957ZM317.789 10.684L318.041 11.734C319.511 11.356 321.485 10.866 323.333 10.376L323.235 9.41C321.247 9.9 319.161 10.404 317.789 10.684ZM318.517 4.664C318.825 6.246 319.119 8.304 319.189 9.676L320.071 9.508C319.987 8.122 319.693 6.092 319.343 4.496L318.517 4.664ZM321.751 4.328C321.569 6.064 321.191 8.598 320.827 10.068L321.597 10.264C321.989 8.794 322.451 6.358 322.745 4.51L321.751 4.328ZM319.595 0.604C319.973 1.262 320.379 2.158 320.533 2.732L321.485 2.41C321.317 1.836 320.897 0.967999 320.491 0.323999L319.595 0.604ZM326.567 3.152V4.146H330.585V3.152H326.567ZM324.159 11.454V12.448H329.451V11.454H324.159ZM325.951 0.24V7.38H327.015V0.24H325.951ZM323.669 6.946V13.106H324.691V7.926H328.919V13.05H329.983V6.946H323.669Z" fill="#9A9A9A"/>
</svg>
