<svg width="291" height="105" viewBox="0 0 291 105" fill="none" xmlns="http://www.w3.org/2000/svg">
<path d="M25.9823 37.7782L28.3095 44H38.2359L24.7474 8.18894H14.5835L0.810021 44H10.6889L13.1587 37.7782H25.9823ZM23.465 30.654H15.7234L19.5705 19.2552H19.6654L23.465 30.654ZM50.9289 8.18894H41.6199V44H50.9289V8.18894ZM73.1668 29.3241C78.2488 28.4217 81.0035 24.1472 81.0035 19.2077C81.0035 11.5611 75.6366 8.18894 68.5598 8.18894H54.6439V44H63.9528V30.2265H64.0478L72.8344 44H84.4231L73.1668 29.3241ZM63.9528 15.3132H64.8552C67.8949 15.3132 71.3145 15.8831 71.3145 19.7777C71.3145 23.6722 67.8949 24.2422 64.8552 24.2422H63.9528V15.3132ZM104.535 19.6352H95.8912V44H104.535V19.6352ZM100.213 5.43424C97.5535 5.43424 95.3688 7.619 95.3688 10.2787C95.3688 12.9384 97.5535 15.1232 100.213 15.1232C102.873 15.1232 105.058 12.9384 105.058 10.2787C105.058 7.619 102.873 5.43424 100.213 5.43424ZM116.492 19.6352H107.848V44H116.492V31.3664C116.492 28.3267 117.49 25.7145 121.004 25.7145C125.279 25.7145 124.899 29.7991 124.899 32.1263V44H133.543V28.9442C133.543 22.9598 130.931 18.8278 124.377 18.8278C121.004 18.8278 118.582 19.8252 116.587 22.7698H116.492V19.6352ZM159.043 16.0731H166.737V8.18894H142.04V16.0731H149.734V44H159.043V16.0731ZM176.758 26.3319C180.273 26.3319 182.315 28.8492 182.315 31.8413C182.315 34.9285 180.273 37.3032 176.758 37.3032C173.244 37.3032 171.201 34.9285 171.201 31.8413C171.201 28.8492 173.244 26.3319 176.758 26.3319ZM190.674 19.6352H182.03V22.0099C180.225 19.8727 177.281 18.8278 174.478 18.8278C167.259 18.8278 162.272 24.8121 162.272 31.7938C162.272 38.7756 167.354 44.8074 174.573 44.8074C177.423 44.8074 180.415 43.715 181.935 41.2928H182.03V44H190.674V19.6352ZM202.673 19.6352H194.029V44H202.673V19.6352ZM198.351 5.43424C195.691 5.43424 193.507 7.619 193.507 10.2787C193.507 12.9384 195.691 15.1232 198.351 15.1232C201.011 15.1232 203.196 12.9384 203.196 10.2787C203.196 7.619 201.011 5.43424 198.351 5.43424ZM214.63 19.6352H205.986V44H214.63V31.3664C214.63 28.3267 215.628 25.7145 219.142 25.7145C223.417 25.7145 223.037 29.7991 223.037 32.1263V44H231.681V28.9442C231.681 22.9598 229.069 18.8278 222.515 18.8278C219.142 18.8278 216.72 19.8252 214.725 22.7698H214.63V19.6352ZM247.741 26.3319C251.255 26.3319 253.297 28.8492 253.297 31.8413C253.297 34.9285 251.255 37.3032 247.741 37.3032C244.226 37.3032 242.184 34.9285 242.184 31.8413C242.184 28.8492 244.226 26.3319 247.741 26.3319ZM261.657 19.6352H253.012V22.0099C251.208 19.8727 248.263 18.8278 245.461 18.8278C238.242 18.8278 233.255 24.8121 233.255 31.7938C233.255 38.7756 238.337 44.8074 245.556 44.8074C248.405 44.8074 251.398 43.715 252.917 41.2928H253.012V44H261.657V19.6352ZM273.656 19.6352H265.012V44H273.656V31.3664C273.656 28.3267 274.653 25.7145 278.168 25.7145C282.442 25.7145 282.062 29.7991 282.062 32.1263V44H290.706V28.9442C290.706 22.9598 288.094 18.8278 281.54 18.8278C278.168 18.8278 275.745 19.8252 273.751 22.7698H273.656V19.6352Z" fill="#FF6666"/>
<path d="M1.61786 62.9702V63.5194H10.1191V62.9702H1.61786ZM10.0047 62.9129V63.5651H11.8354V62.9129H10.0047ZM2.93367 66.9405V67.5126H10.4967V66.9405H2.93367ZM4.30669 59.4003V61.4484H5.15339V59.4003H4.30669ZM8.23124 59.4003V61.4484H9.07794V59.4003H8.23124ZM6.26324 61.1852V69.9153H7.08706V61.1852H6.26324ZM10.1306 64.9954V69.9153H10.9315V64.9954H10.1306ZM2.68195 61.7916V62.3409H9.81021V64.1944H2.6133V64.7551H10.634V61.7916H2.68195ZM2.55609 65.0068V66.2997C2.55609 67.3295 2.44167 68.508 1.43479 69.4233C1.65218 69.5492 1.984 69.778 2.13274 69.9497C3.20827 68.9085 3.34558 67.5469 3.34558 66.3112V65.0068H2.55609ZM8.07105 64.9839V66.4256H10.5654V65.9107H8.74612V64.9839H8.07105ZM4.61562 64.9839V65.9107H2.968V66.4256H5.30213V64.9839H4.61562ZM8.07105 68.0389V69.8353H8.76901V68.5538H10.5425V68.0389H8.07105ZM2.78493 68.0389V68.5538H4.62706V69.8353H5.30213V68.0389H2.78493ZM1.70939 60.1783V60.8763H6.54929V60.1783H1.70939ZM6.93831 60.1783V60.8763H11.7668V60.1783H6.93831ZM24.5931 62.1921V63.0045H27.3048V62.1921H24.5931ZM25.6343 59.5262V67.1922H26.4466V59.5262H25.6343ZM24.3986 67.524L24.6846 68.3936C25.5313 68.0732 26.5382 67.6613 27.5222 67.2494L27.3505 66.4714C26.2636 66.8718 25.1652 67.2837 24.3986 67.524ZM31.6069 59.3889V62.2035H32.385V59.3889H31.6069ZM27.7396 60.4987V61.1852H31.2522V60.4987H27.7396ZM32.0188 60.3156V61.0136H34.9365V60.3156H32.0188ZM27.5794 62.7871V63.4965H31.3552V62.7871H27.5794ZM28.3231 65.6247V66.2196H30.6344V65.6247H28.3231ZM31.973 64.9153V65.5102H34.5475V64.9153H31.973ZM31.973 66.1853V66.7917H34.433V66.1853H31.973ZM31.973 67.4897V68.0847H34.6848V67.4897H31.973ZM28.3231 67.0549V67.6613H30.6344V67.0549H28.3231ZM28.1744 61.4255C28.3231 61.8489 28.4947 62.3981 28.5634 62.7642L29.1469 62.5354C29.0783 62.1921 28.9066 61.6429 28.735 61.231L28.1744 61.4255ZM30.1881 61.2424C30.0966 61.723 29.8906 62.4667 29.7304 62.9244L30.2682 63.1075C30.4398 62.6727 30.6344 62.009 30.8289 61.4255L30.1881 61.2424ZM27.9798 64.1258V69.9039H28.7007V64.7894H30.6229V64.1258H27.9798ZM30.3025 64.1258V68.9886C30.3025 69.103 30.2682 69.1373 30.1652 69.1487C30.0508 69.1487 29.6961 69.1487 29.2842 69.1373C29.3872 69.3318 29.5016 69.6407 29.5359 69.8353C30.108 69.8353 30.4742 69.8238 30.7144 69.698C30.9662 69.5721 31.0234 69.3547 31.0234 69V64.1258H30.3025ZM31.6069 63.8512V68.6682C31.6069 69.5721 31.8357 69.8009 32.6824 69.8009C32.8541 69.8009 33.8724 69.8009 34.0555 69.8009C34.6962 69.8009 34.925 69.5263 35.0166 68.611C34.7877 68.5652 34.4788 68.4508 34.3186 68.3135C34.2843 68.9313 34.2385 69.0458 33.9868 69.0458C33.7809 69.0458 32.9342 69.0458 32.7854 69.0458C32.4307 69.0458 32.385 68.9886 32.385 68.6682V63.8512H31.6069ZM31.6069 61.8489V62.5125H33.8724V63.588H31.6069V64.2402H34.6504V61.8489H31.6069ZM28.9066 59.5033C29.0897 59.9266 29.2842 60.4873 29.3758 60.8534L30.0623 60.6703C29.9707 60.3156 29.7648 59.7779 29.5817 59.3545L28.9066 59.5033ZM55.2801 61.8031C53.9757 65.7048 51.4814 67.913 47.4081 69.0915C47.5797 69.286 47.8429 69.6865 47.9459 69.8925C52.0992 68.5652 54.708 66.2196 56.1725 62.0548L55.2801 61.8031ZM50.0855 61.8489L49.2845 62.1006C50.7377 65.9679 53.3578 68.714 57.4655 69.8467C57.6028 69.6064 57.8545 69.2403 58.0604 69.0458C54.0558 68.0503 51.3784 65.3958 50.0855 61.8489ZM47.5683 61.4141V62.2493H57.9117V61.4141H47.5683ZM51.8361 59.5834C52.1793 60.1555 52.534 60.9106 52.6828 61.3797L53.621 61.0822C53.4608 60.6017 53.0718 59.858 52.7285 59.3202L51.8361 59.5834ZM75.5779 59.5719V67.9702C75.5779 69.1945 75.9097 69.5263 77.0653 69.5263C77.317 69.5263 78.9761 69.5263 79.2507 69.5263C80.4864 69.5263 80.7038 68.794 80.8411 66.6544C80.6008 66.5972 80.269 66.437 80.0516 66.2768C79.9601 68.2334 79.8571 68.7483 79.2164 68.7483C78.8502 68.7483 77.4086 68.7483 77.1225 68.7483C76.5276 68.7483 76.4017 68.611 76.4017 67.9931V59.5719H75.5779ZM73.5412 59.4346C72.809 61.1967 71.5847 62.9015 70.3146 63.9885C70.4748 64.1944 70.7151 64.6521 70.8066 64.8466C72.1682 63.5766 73.4955 61.6543 74.3422 59.7092L73.5412 59.4346ZM72.3627 62.2264V69.9153H73.1865V61.4369L73.1751 61.4255L72.3627 62.2264ZM76.0584 62.7184V63.5308H80.4979V62.7184H76.0584ZM95.3036 62.7985V63.3477H102.066V62.7985H95.3036ZM95.9787 61.5399V62.0891H101.471V61.5399H95.9787ZM98.267 60.9106V63.1303H99.068V60.9106H98.267ZM98.1526 65.1784C97.4547 65.7276 96.1503 66.1624 95.0176 66.437C95.1549 66.5629 95.3837 66.8261 95.4638 66.9405C96.608 66.6201 97.981 66.0594 98.759 65.3958L98.1526 65.1784ZM101.482 65.7391C101.093 66.0366 100.407 66.4599 99.9032 66.7231L100.361 67.0206C100.876 66.8032 101.528 66.4599 102.043 66.0938L101.482 65.7391ZM96.7682 64.2402H100.636V65.0411H96.7682V64.2402ZM96.0359 63.7825V65.4988H101.391V63.7825H96.0359ZM93.9306 59.8923V69.9268H94.743V60.6818H102.649V69.9268H103.496V59.8923H93.9306ZM94.434 68.6567V69.4348H103.118V68.6567H94.434ZM98.4158 66.0594C99.5028 66.6887 100.853 67.6155 101.505 68.2105L102.089 67.8215C101.368 67.2265 100.006 66.3226 98.9536 65.7276L98.4158 66.0594ZM96.4936 68.5423C96.6652 68.4279 96.9627 68.3364 99.0909 67.7414C99.068 67.6155 99.068 67.3638 99.0794 67.1922L96.7796 67.7528L96.4592 68.016L96.4936 68.5423ZM96.4936 68.5423C96.4936 68.302 97.3631 67.9588 97.3631 67.9588V66.0137L96.6995 66.0022V67.3867C96.6995 67.7986 96.4135 67.9359 96.2533 68.0046C96.3334 68.1304 96.4478 68.3821 96.4936 68.5423ZM120.933 62.0548H123.565V63.3706H120.933V62.0548ZM120.132 61.4369V63.9885H124.412V61.4369H120.132ZM119.606 65.3958H121.128V67.0892H119.606V65.3958ZM118.874 64.7665V67.7185H121.883V64.7665H118.874ZM123.393 65.3958H124.995V67.0892H123.393V65.3958ZM122.661 64.7665V67.7185H125.75V64.7665H122.661ZM116.654 59.9266V60.6932H126.311V59.9266H116.654ZM117.135 59.9838V67.135C117.135 68.8169 117.981 69.389 119.743 69.389C120.167 69.389 124 69.389 124.812 69.389C125.705 69.389 126.574 69.3661 126.883 69.286C126.837 69.0915 126.78 68.6911 126.746 68.4622C126.334 68.5423 125.453 68.5881 124.835 68.5881C124.023 68.5881 120.396 68.5881 119.652 68.5881C118.416 68.5881 117.97 68.1762 117.97 67.2036V59.9838H117.135Z" fill="#434343"/>
<path d="M3.23462 82.3523C4.37037 82.3523 5.071 81.6738 5.071 80.8183C5.071 80.0144 4.59162 79.6383 3.95737 79.3654L3.19037 79.0335C2.77 78.8565 2.298 78.6648 2.298 78.1338C2.298 77.6544 2.69625 77.3446 3.30837 77.3446C3.8025 77.3446 4.20075 77.5438 4.53262 77.8535L4.894 77.4184C4.51787 77.0201 3.95 76.7473 3.30837 76.7473C2.32012 76.7473 1.60475 77.352 1.60475 78.1854C1.60475 78.9745 2.19475 79.358 2.70362 79.5719L3.478 79.9111C3.98687 80.1324 4.37775 80.3094 4.37775 80.8699C4.37775 81.3935 3.95737 81.7475 3.24937 81.7475C2.68887 81.7475 2.14312 81.4894 1.75225 81.0764L1.34662 81.5484C1.81862 82.0425 2.475 82.3523 3.23462 82.3523ZM8.49081 82.249H9.17668V76.8431H8.49081V82.249ZM12.2961 82.249H12.9893L13.9407 79.2253C14.1398 78.6205 14.3095 78.0305 14.4865 77.4036H14.516C14.693 78.0305 14.8626 78.6205 15.0543 79.2253L16.0057 82.249H16.7211L14.8921 76.8431H14.1251L12.2961 82.249ZM13.2548 80.597H15.7476V80.0586H13.2548V80.597ZM21.7562 82.3523C23.1132 82.3523 24.0572 81.2608 24.0572 79.5276C24.0572 77.8019 23.1132 76.7473 21.7562 76.7473C20.3918 76.7473 19.4478 77.7945 19.4478 79.5276C19.4478 81.2608 20.3918 82.3523 21.7562 82.3523ZM21.7562 81.7475C20.7827 81.7475 20.1484 80.8773 20.1484 79.5276C20.1484 78.178 20.7827 77.3446 21.7562 77.3446C22.7223 77.3446 23.3639 78.178 23.3639 79.5276C23.3639 80.8773 22.7223 81.7475 21.7562 81.7475ZM27.1929 80.4495H29.0809V79.9333H27.1929V80.4495ZM32.508 82.249H35.5538V81.6738H33.1938V76.8431H32.508V82.249ZM40.6405 82.3523C41.9975 82.3523 42.9415 81.2608 42.9415 79.5276C42.9415 77.8019 41.9975 76.7473 40.6405 76.7473C39.2761 76.7473 38.3321 77.7945 38.3321 79.5276C38.3321 81.2608 39.2761 82.3523 40.6405 82.3523ZM40.6405 81.7475C39.667 81.7475 39.0328 80.8773 39.0328 79.5276C39.0328 78.178 39.667 77.3446 40.6405 77.3446C41.6066 77.3446 42.2483 78.178 42.2483 79.5276C42.2483 80.8773 41.6066 81.7475 40.6405 81.7475ZM46.4755 82.249H47.1245V79.417C47.1245 78.8418 47.0729 78.2739 47.036 77.7281H47.0729L47.6555 78.8418L49.6173 82.249H50.3253V76.8431H49.6689V79.653C49.6689 80.2135 49.7205 80.8256 49.7648 81.3714H49.7279L49.1453 80.2504L47.1761 76.8431H46.4755V82.249ZM56.2891 82.3523C57.0192 82.3523 57.6092 82.0868 57.9632 81.7254V79.4539H56.1858V80.0218H57.329V81.4378C57.1225 81.6295 56.7463 81.7475 56.3555 81.7475C55.1976 81.7475 54.556 80.8994 54.556 79.535C54.556 78.1854 55.2566 77.3446 56.3481 77.3446C56.8938 77.3446 57.2405 77.5733 57.5133 77.8535L57.8895 77.411C57.5723 77.0865 57.0782 76.7473 56.3333 76.7473C54.9026 76.7473 53.8553 77.8093 53.8553 79.5498C53.8553 81.305 54.8731 82.3523 56.2891 82.3523Z" fill="#434343"/>
<path d="M1.75724 96H2.9888V89.8422H1.75724V96ZM7.18339 96H8.40663V92.7963C8.7478 92.4634 8.98912 92.2804 9.3719 92.2804C9.82125 92.2804 10.0293 92.5217 10.0293 93.254V96H11.2525V93.0959C11.2525 91.9309 10.8115 91.2319 9.81293 91.2319C9.18051 91.2319 8.69788 91.5647 8.29845 91.9642H8.27349L8.17363 91.3484H7.18339V96ZM16.9911 96.1165C17.4072 96.1165 17.7317 96.025 17.9814 95.9418L17.7816 95.0514C17.6485 95.1013 17.4738 95.1595 17.3156 95.1595C16.9079 95.1595 16.6832 94.9099 16.6832 94.3773V92.3053H17.8399V91.3484H16.6832V90.0835H15.668L15.5349 91.3484L14.8109 91.3983V92.3053H15.46V94.3773C15.46 95.4175 15.8844 96.1165 16.9911 96.1165ZM23.4026 96.1165C23.9767 96.1165 24.5592 95.9251 25.0169 95.6089L24.6092 94.8517C24.268 95.0597 23.9351 95.1762 23.5607 95.1762C22.87 95.1762 22.3707 94.7851 22.2625 94.0195H25.1417C25.1667 93.903 25.1916 93.6867 25.1916 93.4537C25.1916 92.1639 24.5343 91.2319 23.2445 91.2319C22.146 91.2319 21.0809 92.1639 21.0809 93.6784C21.0809 95.2178 22.0961 96.1165 23.4026 96.1165ZM22.2459 93.204C22.3458 92.5217 22.7785 92.1722 23.2694 92.1722C23.8686 92.1722 24.1515 92.5716 24.1515 93.204H22.2459ZM28.9866 96H30.2099V93.229C30.4678 92.555 30.9089 92.3053 31.2667 92.3053C31.4664 92.3053 31.5912 92.3386 31.7576 92.3802L31.9657 91.3317C31.8242 91.2652 31.6744 91.2319 31.4248 91.2319C30.9421 91.2319 30.4345 91.5564 30.1017 92.1722H30.0767L29.9769 91.3484H28.9866V96ZM35.3984 96H36.6216V92.7963C36.9628 92.4634 37.2041 92.2804 37.5869 92.2804C38.0363 92.2804 38.2443 92.5217 38.2443 93.254V96H39.4675V93.0959C39.4675 91.9309 39.0265 91.2319 38.0279 91.2319C37.3955 91.2319 36.9129 91.5647 36.5135 91.9642H36.4885L36.3886 91.3484H35.3984V96ZM44.6486 96.1165C45.1812 96.1165 45.6472 95.8585 46.0549 95.509H46.0882L46.1797 96H47.1783V93.2872C47.1783 91.9309 46.5708 91.2319 45.3892 91.2319C44.6486 91.2319 43.9912 91.5065 43.442 91.8393L43.883 92.6548C44.3074 92.3969 44.7318 92.2138 45.1645 92.2138C45.7387 92.2138 45.9301 92.555 45.955 93.0126C44.0827 93.2207 43.2756 93.7449 43.2756 94.7352C43.2756 95.534 43.8165 96.1165 44.6486 96.1165ZM45.048 95.1595C44.6902 95.1595 44.4406 95.0014 44.4406 94.6436C44.4406 94.2192 44.815 93.9113 45.955 93.7699V94.7102C45.6555 95.0014 45.3975 95.1595 45.048 95.1595ZM52.6987 96.1165C53.1148 96.1165 53.4393 96.025 53.6889 95.9418L53.4892 95.0514C53.3561 95.1013 53.1813 95.1595 53.0232 95.1595C52.6155 95.1595 52.3908 94.9099 52.3908 94.3773V92.3053H53.5475V91.3484H52.3908V90.0835H51.3756L51.2425 91.3484L50.5185 91.3983V92.3053H51.1676V94.3773C51.1676 95.4175 51.592 96.1165 52.6987 96.1165ZM57.2829 96H58.5061V91.3484H57.2829V96ZM57.8904 90.5911C58.3147 90.5911 58.606 90.3249 58.606 89.9171C58.606 89.5177 58.3147 89.2597 57.8904 89.2597C57.466 89.2597 57.183 89.5177 57.183 89.9171C57.183 90.3249 57.466 90.5911 57.8904 90.5911ZM64.5367 96.1165C65.7017 96.1165 66.7668 95.2178 66.7668 93.6784C66.7668 92.1306 65.7017 91.2319 64.5367 91.2319C63.3634 91.2319 62.2983 92.1306 62.2983 93.6784C62.2983 95.2178 63.3634 96.1165 64.5367 96.1165ZM64.5367 95.1263C63.896 95.1263 63.5465 94.5521 63.5465 93.6784C63.5465 92.7963 63.896 92.2304 64.5367 92.2304C65.1691 92.2304 65.5186 92.7963 65.5186 93.6784C65.5186 94.5521 65.1691 95.1263 64.5367 95.1263ZM70.5778 96H71.801V92.7963C72.1422 92.4634 72.3835 92.2804 72.7663 92.2804C73.2156 92.2804 73.4237 92.5217 73.4237 93.254V96H74.6469V93.0959C74.6469 91.9309 74.2059 91.2319 73.2073 91.2319C72.5749 91.2319 72.0923 91.5647 71.6928 91.9642H71.6679L71.568 91.3484H70.5778V96ZM79.828 96.1165C80.3605 96.1165 80.8265 95.8585 81.2343 95.509H81.2676L81.3591 96H82.3577V93.2872C82.3577 91.9309 81.7502 91.2319 80.5686 91.2319C79.828 91.2319 79.1706 91.5065 78.6214 91.8393L79.0624 92.6548C79.4868 92.3969 79.9112 92.2138 80.3439 92.2138C80.9181 92.2138 81.1095 92.555 81.1344 93.0126C79.2621 93.2207 78.455 93.7449 78.455 94.7352C78.455 95.534 78.9958 96.1165 79.828 96.1165ZM80.2274 95.1595C79.8696 95.1595 79.6199 95.0014 79.6199 94.6436C79.6199 94.2192 79.9944 93.9113 81.1344 93.7699V94.7102C80.8348 95.0014 80.5769 95.1595 80.2274 95.1595ZM87.532 96.1165C87.8233 96.1165 88.0147 96.0666 88.1561 96.0166L88.0063 95.1096C87.9231 95.1263 87.8898 95.1263 87.8482 95.1263C87.7317 95.1263 87.6069 95.0347 87.6069 94.7435V89.3679H86.3837V94.6936C86.3837 95.559 86.6749 96.1165 87.532 96.1165ZM95.7617 96H97.0099L97.892 92.7963C98.0751 92.1555 98.2498 91.4482 98.4162 90.7825H98.4495C98.6243 91.4399 98.799 92.1555 98.9821 92.7963L99.8642 96H101.154L99.1818 89.8422H97.7339L95.7617 96ZM96.985 94.4189H99.9141V93.4703H96.985V94.4189ZM104.563 96H105.786V93.229C106.044 92.555 106.485 92.3053 106.843 92.3053C107.042 92.3053 107.167 92.3386 107.334 92.3802L107.542 91.3317C107.4 91.2652 107.25 91.2319 107.001 91.2319C106.518 91.2319 106.011 91.5564 105.678 92.1722H105.653L105.553 91.3484H104.563V96ZM112.672 96.1165C113.088 96.1165 113.413 96.025 113.662 95.9418L113.462 95.0514C113.329 95.1013 113.155 95.1595 112.996 95.1595C112.589 95.1595 112.364 94.9099 112.364 94.3773V92.3053H113.521V91.3484H112.364V90.0835H111.349L111.216 91.3484L110.492 91.3983V92.3053H111.141V94.3773C111.141 95.4175 111.565 96.1165 112.672 96.1165ZM117.256 96H118.479V91.3484H117.256V96ZM117.864 90.5911C118.288 90.5911 118.579 90.3249 118.579 89.9171C118.579 89.5177 118.288 89.2597 117.864 89.2597C117.439 89.2597 117.156 89.5177 117.156 89.9171C117.156 90.3249 117.439 90.5911 117.864 90.5911ZM123.894 96.1165C125.101 96.1165 125.741 95.4674 125.741 94.6436C125.741 93.7865 125.067 93.4703 124.452 93.2373C123.952 93.0626 123.528 92.9294 123.528 92.5966C123.528 92.322 123.719 92.1389 124.144 92.1389C124.485 92.1389 124.818 92.3053 125.142 92.5383L125.7 91.8061C125.317 91.5065 124.785 91.2319 124.11 91.2319C123.045 91.2319 122.38 91.8227 122.38 92.6465C122.38 93.437 123.037 93.7865 123.628 94.0195C124.11 94.2026 124.601 94.369 124.601 94.7102C124.601 95.0014 124.385 95.2095 123.919 95.2095C123.486 95.2095 123.095 95.0181 122.671 94.6936L122.122 95.4674C122.579 95.8502 123.27 96.1165 123.894 96.1165ZM130.924 96.1165C131.34 96.1165 131.665 96.025 131.914 95.9418L131.714 95.0514C131.581 95.1013 131.407 95.1595 131.248 95.1595C130.841 95.1595 130.616 94.9099 130.616 94.3773V92.3053H131.773V91.3484H130.616V90.0835H129.601L129.468 91.3484L128.744 91.3983V92.3053H129.393V94.3773C129.393 95.4175 129.817 96.1165 130.924 96.1165ZM136.701 96.1165C137.908 96.1165 138.549 95.4674 138.549 94.6436C138.549 93.7865 137.875 93.4703 137.259 93.2373C136.76 93.0626 136.335 92.9294 136.335 92.5966C136.335 92.322 136.527 92.1389 136.951 92.1389C137.292 92.1389 137.625 92.3053 137.95 92.5383L138.507 91.8061C138.124 91.5065 137.592 91.2319 136.918 91.2319C135.853 91.2319 135.187 91.8227 135.187 92.6465C135.187 93.437 135.844 93.7865 136.435 94.0195C136.918 94.2026 137.409 94.369 137.409 94.7102C137.409 95.0014 137.192 95.2095 136.726 95.2095C136.294 95.2095 135.903 95.0181 135.478 94.6936L134.929 95.4674C135.387 95.8502 136.077 96.1165 136.701 96.1165ZM142.052 94.0611H144.332V93.1874H142.052V94.0611ZM148.169 96H149.392V91.3484H148.169V96ZM148.777 90.5911C149.201 90.5911 149.492 90.3249 149.492 89.9171C149.492 89.5177 149.201 89.2597 148.777 89.2597C148.352 89.2597 148.069 89.5177 148.069 89.9171C148.069 90.3249 148.352 90.5911 148.777 90.5911ZM153.476 96H154.699V92.7963C155.04 92.4634 155.282 92.2804 155.664 92.2804C156.114 92.2804 156.322 92.5217 156.322 93.254V96H157.545V93.0959C157.545 91.9309 157.104 91.2319 156.105 91.2319C155.473 91.2319 154.99 91.5647 154.591 91.9642H154.566L154.466 91.3484H153.476V96ZM161.328 94.0611H163.608V93.1874H161.328V94.0611ZM167.545 96H168.777V93.6784H169.684C170.973 93.6784 171.997 93.0792 171.997 91.7062C171.997 90.2916 170.973 89.8422 169.684 89.8422H167.545V96ZM168.777 92.7048V90.8241H169.567C170.366 90.8241 170.799 91.0488 170.799 91.7062C170.799 92.3636 170.366 92.7048 169.567 92.7048H168.777ZM170.89 96H172.263L170.316 92.5883L169.459 93.3621L170.89 96ZM177.789 96.1165C178.363 96.1165 178.946 95.9251 179.403 95.6089L178.995 94.8517C178.654 95.0597 178.321 95.1762 177.947 95.1762C177.256 95.1762 176.757 94.7851 176.649 94.0195H179.528C179.553 93.903 179.578 93.6867 179.578 93.4537C179.578 92.1639 178.921 91.2319 177.631 91.2319C176.532 91.2319 175.467 92.1639 175.467 93.6784C175.467 95.2178 176.482 96.1165 177.789 96.1165ZM176.632 93.204C176.732 92.5217 177.165 92.1722 177.656 92.1722C178.255 92.1722 178.538 92.5716 178.538 93.204H176.632ZM184.704 96.1165C185.911 96.1165 186.552 95.4674 186.552 94.6436C186.552 93.7865 185.878 93.4703 185.262 93.2373C184.763 93.0626 184.338 92.9294 184.338 92.5966C184.338 92.322 184.53 92.1389 184.954 92.1389C185.295 92.1389 185.628 92.3053 185.953 92.5383L186.51 91.8061C186.127 91.5065 185.595 91.2319 184.921 91.2319C183.856 91.2319 183.19 91.8227 183.19 92.6465C183.19 93.437 183.847 93.7865 184.438 94.0195C184.921 94.2026 185.412 94.369 185.412 94.7102C185.412 95.0014 185.195 95.2095 184.729 95.2095C184.297 95.2095 183.906 95.0181 183.481 94.6936L182.932 95.4674C183.39 95.8502 184.08 96.1165 184.704 96.1165ZM190.272 96H191.496V91.3484H190.272V96ZM190.88 90.5911C191.304 90.5911 191.595 90.3249 191.595 89.9171C191.595 89.5177 191.304 89.2597 190.88 89.2597C190.455 89.2597 190.172 89.5177 190.172 89.9171C190.172 90.3249 190.455 90.5911 190.88 90.5911ZM197.218 96.1165C197.701 96.1165 198.167 95.8585 198.508 95.5174H198.533L198.624 96H199.623V89.3679H198.4V90.9989L198.45 91.7312C198.109 91.4233 197.784 91.2319 197.26 91.2319C196.261 91.2319 195.304 92.1555 195.304 93.6784C195.304 95.2095 196.053 96.1165 197.218 96.1165ZM197.526 95.1096C196.919 95.1096 196.561 94.6353 196.561 93.6617C196.561 92.7297 197.01 92.2304 197.534 92.2304C197.826 92.2304 198.125 92.3303 198.4 92.5883V94.6353C198.134 94.9765 197.859 95.1096 197.526 95.1096ZM205.744 96.1165C206.318 96.1165 206.901 95.9251 207.358 95.6089L206.95 94.8517C206.609 95.0597 206.276 95.1762 205.902 95.1762C205.211 95.1762 204.712 94.7851 204.604 94.0195H207.483C207.508 93.903 207.533 93.6867 207.533 93.4537C207.533 92.1639 206.876 91.2319 205.586 91.2319C204.487 91.2319 203.422 92.1639 203.422 93.6784C203.422 95.2178 204.437 96.1165 205.744 96.1165ZM204.587 93.204C204.687 92.5217 205.12 92.1722 205.611 92.1722C206.21 92.1722 206.493 92.5716 206.493 93.204H204.587ZM211.328 96H212.551V92.7963C212.892 92.4634 213.134 92.2804 213.516 92.2804C213.966 92.2804 214.174 92.5217 214.174 93.254V96H215.397V93.0959C215.397 91.9309 214.956 91.2319 213.957 91.2319C213.325 91.2319 212.842 91.5647 212.443 91.9642H212.418L212.318 91.3484H211.328V96ZM221.41 96.1165C221.926 96.1165 222.5 95.9418 222.941 95.559L222.459 94.7518C222.201 94.9598 221.885 95.1263 221.543 95.1263C220.878 95.1263 220.395 94.5521 220.395 93.6784C220.395 92.7963 220.869 92.2304 221.593 92.2304C221.843 92.2304 222.068 92.3303 222.301 92.53L222.875 91.7478C222.534 91.4482 222.101 91.2319 221.518 91.2319C220.254 91.2319 219.147 92.1306 219.147 93.6784C219.147 95.2178 220.129 96.1165 221.41 96.1165ZM228.343 96.1165C228.918 96.1165 229.5 95.9251 229.958 95.6089L229.55 94.8517C229.209 95.0597 228.876 95.1762 228.502 95.1762C227.811 95.1762 227.312 94.7851 227.203 94.0195H230.083C230.108 93.903 230.133 93.6867 230.133 93.4537C230.133 92.1639 229.475 91.2319 228.185 91.2319C227.087 91.2319 226.022 92.1639 226.022 93.6784C226.022 95.2178 227.037 96.1165 228.343 96.1165ZM227.187 93.204C227.287 92.5217 227.719 92.1722 228.21 92.1722C228.809 92.1722 229.092 92.5716 229.092 93.204H227.187ZM238.692 96H239.924V93.8115H240.747C242.07 93.8115 243.119 93.1874 243.119 91.7811C243.119 90.3165 242.07 89.8422 240.714 89.8422H238.692V96ZM239.924 92.8379V90.8241H240.623C241.471 90.8241 241.921 91.0571 241.921 91.7811C241.921 92.4801 241.513 92.8379 240.664 92.8379H239.924ZM246.922 96H248.145V93.229C248.403 92.555 248.844 92.3053 249.202 92.3053C249.401 92.3053 249.526 92.3386 249.693 92.3802L249.901 91.3317C249.759 91.2652 249.61 91.2319 249.36 91.2319C248.877 91.2319 248.37 91.5564 248.037 92.1722H248.012L247.912 91.3484H246.922V96ZM255.143 96.1165C256.308 96.1165 257.373 95.2178 257.373 93.6784C257.373 92.1306 256.308 91.2319 255.143 91.2319C253.969 91.2319 252.904 92.1306 252.904 93.6784C252.904 95.2178 253.969 96.1165 255.143 96.1165ZM255.143 95.1263C254.502 95.1263 254.152 94.5521 254.152 93.6784C254.152 92.7963 254.502 92.2304 255.143 92.2304C255.775 92.2304 256.124 92.7963 256.124 93.6784C256.124 94.5521 255.775 95.1263 255.143 95.1263ZM262.815 98.0221C264.371 98.0221 265.361 97.3148 265.361 96.3745C265.361 95.5506 264.745 95.2095 263.622 95.2095H262.823C262.282 95.2095 262.091 95.068 262.091 94.8267C262.091 94.6353 262.166 94.5354 262.29 94.4189C262.498 94.4938 262.706 94.5271 262.89 94.5271C263.896 94.5271 264.695 94.0029 264.695 92.9461C264.695 92.6631 264.604 92.4052 264.479 92.2471H265.278V91.3484H263.597C263.405 91.2735 263.156 91.2319 262.89 91.2319C261.908 91.2319 261.009 91.8144 261.009 92.9128C261.009 93.462 261.317 93.903 261.641 94.136V94.1693C261.35 94.369 261.117 94.6852 261.117 95.0347C261.117 95.4175 261.3 95.6671 261.541 95.8253V95.8669C261.109 96.0999 260.876 96.441 260.876 96.8321C260.876 97.6476 261.725 98.0221 262.815 98.0221ZM262.89 93.7782C262.482 93.7782 262.157 93.462 262.157 92.9128C262.157 92.3636 262.482 92.064 262.89 92.064C263.306 92.064 263.622 92.3636 263.622 92.9128C263.622 93.462 263.297 93.7782 262.89 93.7782ZM263.006 97.2482C262.324 97.2482 261.891 97.0318 261.891 96.6407C261.891 96.4494 261.982 96.2663 262.199 96.0915C262.365 96.1415 262.557 96.1581 262.84 96.1581H263.405C263.905 96.1581 264.179 96.2496 264.179 96.5825C264.179 96.9403 263.705 97.2482 263.006 97.2482ZM268.928 96H270.151V93.229C270.409 92.555 270.85 92.3053 271.208 92.3053C271.408 92.3053 271.533 92.3386 271.699 92.3802L271.907 91.3317C271.766 91.2652 271.616 91.2319 271.366 91.2319C270.884 91.2319 270.376 91.5564 270.043 92.1722H270.018L269.918 91.3484H268.928V96ZM276.179 96.1165C276.712 96.1165 277.178 95.8585 277.586 95.509H277.619L277.71 96H278.709V93.2872C278.709 91.9309 278.101 91.2319 276.92 91.2319C276.179 91.2319 275.522 91.5065 274.973 91.8393L275.414 92.6548C275.838 92.3969 276.262 92.2138 276.695 92.2138C277.269 92.2138 277.461 92.555 277.486 93.0126C275.613 93.2207 274.806 93.7449 274.806 94.7352C274.806 95.534 275.347 96.1165 276.179 96.1165ZM276.579 95.1595C276.221 95.1595 275.971 95.0014 275.971 94.6436C275.971 94.2192 276.346 93.9113 277.486 93.7699V94.7102C277.186 95.0014 276.928 95.1595 276.579 95.1595ZM282.735 96H283.958V92.7963C284.274 92.4468 284.582 92.2804 284.84 92.2804C285.29 92.2804 285.498 92.5217 285.498 93.254V96H286.721V92.7963C287.054 92.4468 287.345 92.2804 287.611 92.2804C288.061 92.2804 288.26 92.5217 288.26 93.254V96H289.484V93.0959C289.484 91.9309 289.034 91.2319 288.044 91.2319C287.437 91.2319 286.987 91.598 286.554 92.039C286.338 91.5231 285.947 91.2319 285.273 91.2319C284.674 91.2319 284.241 91.5647 283.85 91.9642H283.825L283.725 91.3484H282.735V96Z" fill="#434343"/>
<path d="M161.093 82.249H161.786V77.4184H163.416V76.8431H159.463V77.4184H161.093V82.249ZM165.464 82.3523C166.6 82.3523 167.301 81.6738 167.301 80.8183C167.301 80.0144 166.821 79.6383 166.187 79.3654L165.42 79.0335C165 78.8565 164.528 78.6648 164.528 78.1338C164.528 77.6544 164.926 77.3446 165.538 77.3446C166.032 77.3446 166.431 77.5438 166.762 77.8535L167.124 77.4184C166.748 77.0201 166.18 76.7473 165.538 76.7473C164.55 76.7473 163.835 77.352 163.835 78.1854C163.835 78.9745 164.425 79.358 164.933 79.5719L165.708 79.9111C166.217 80.1324 166.608 80.3094 166.608 80.8699C166.608 81.3935 166.187 81.7475 165.479 81.7475C164.919 81.7475 164.373 81.4894 163.982 81.0764L163.576 81.5484C164.048 82.0425 164.705 82.3523 165.464 82.3523ZM170.204 82.3523C171.311 82.3523 172.151 81.7549 172.151 80.0218V76.8431H171.495V80.0439C171.495 81.3419 170.92 81.7475 170.204 81.7475C169.496 81.7475 168.943 81.3419 168.943 80.0439V76.8431H168.265V80.0218C168.265 81.7549 169.106 82.3523 170.204 82.3523ZM173.528 82.249H174.177V79.417C174.177 78.8418 174.126 78.2739 174.089 77.7281H174.126L174.708 78.8418L176.67 82.249H177.378V76.8431H176.722V79.653C176.722 80.2135 176.773 80.8256 176.818 81.3714H176.781L176.198 80.2504L174.229 76.8431H173.528V82.249ZM180.908 82.3523C181.638 82.3523 182.228 82.0868 182.582 81.7254V79.4539H180.805V80.0218H181.948V81.4378C181.742 81.6295 181.365 81.7475 180.975 81.7475C179.817 81.7475 179.175 80.8994 179.175 79.535C179.175 78.1854 179.876 77.3446 180.967 77.3446C181.513 77.3446 181.86 77.5733 182.132 77.8535L182.509 77.411C182.191 77.0865 181.697 76.7473 180.952 76.7473C179.522 76.7473 178.474 77.8093 178.474 79.5498C178.474 81.305 179.492 82.3523 180.908 82.3523ZM183.397 80.4495H185.285V79.9333H183.397V80.4495ZM186.587 82.249H187.265V80.1545L188.888 76.8431H188.187L187.487 78.3771C187.317 78.7754 187.133 79.1515 186.941 79.5571H186.911C186.727 79.1515 186.565 78.7754 186.38 78.3771L185.687 76.8431H184.957L186.587 80.1545V82.249ZM189.553 82.249H192.747V81.6738H190.239V79.6973H192.282V79.1146H190.239V77.4184H192.666V76.8431H189.553V82.249ZM193.823 82.249H194.508V79.7046H197.031V82.249H197.709V76.8431H197.031V79.1073H194.508V76.8431H193.823V82.249Z" fill="#434343"/>
<path d="M200.335 82.249H201.028L201.979 79.2253C202.178 78.6205 202.348 78.0305 202.525 77.4036H202.554C202.731 78.0305 202.901 78.6205 203.093 79.2253L204.044 82.249H204.76L202.931 76.8431H202.164L200.335 82.249ZM201.293 80.597H203.786V80.0586H201.293V80.597ZM205.825 82.249H206.496V79.6825C206.761 78.9966 207.174 78.7533 207.506 78.7533C207.668 78.7533 207.757 78.7754 207.897 78.8196L208.022 78.2296C207.89 78.1706 207.772 78.1485 207.595 78.1485C207.145 78.1485 206.732 78.4656 206.459 78.9745H206.437L206.37 78.2444H205.825V82.249ZM210.284 82.3523C210.535 82.3523 210.8 82.2785 211.022 82.1974L210.889 81.6959C210.764 81.7475 210.579 81.8065 210.439 81.8065C209.974 81.8065 209.82 81.5189 209.82 81.0321V78.7901H210.904V78.2444H209.82V77.116H209.252L209.178 78.2444L208.551 78.2886V78.7901H209.148V81.0174C209.148 81.8139 209.429 82.3523 210.284 82.3523ZM213.104 82.3523C214.048 82.3523 214.556 81.8139 214.556 81.1575C214.556 80.3979 213.922 80.1619 213.34 79.9406C212.882 79.7784 212.477 79.6309 212.477 79.2474C212.477 78.9376 212.705 78.6721 213.214 78.6721C213.568 78.6721 213.856 78.827 214.129 79.0261L214.453 78.5984C214.143 78.3476 213.701 78.1485 213.207 78.1485C212.337 78.1485 211.828 78.6426 211.828 79.2769C211.828 79.9628 212.44 80.2283 212.993 80.4421C213.435 80.6044 213.915 80.7888 213.915 81.1944C213.915 81.5484 213.649 81.8286 213.118 81.8286C212.639 81.8286 212.285 81.6295 211.938 81.3493L211.606 81.7991C211.983 82.1089 212.536 82.3523 213.104 82.3523ZM218.771 82.3523C219.265 82.3523 219.715 82.0941 220.091 81.777H220.12L220.179 82.249H220.732V79.7931C220.732 78.7975 220.319 78.1485 219.338 78.1485C218.697 78.1485 218.136 78.4288 217.768 78.6648L218.033 79.1368C218.343 78.9229 218.763 78.7016 219.235 78.7016C219.892 78.7016 220.054 79.1958 220.054 79.712C218.35 79.9038 217.598 80.3389 217.598 81.2091C217.598 81.9319 218.099 82.3523 218.771 82.3523ZM218.955 81.8065C218.564 81.8065 218.254 81.6221 218.254 81.1649C218.254 80.6486 218.704 80.3168 220.054 80.1619V81.2755C219.67 81.6221 219.346 81.8065 218.955 81.8065ZM222.351 82.249H223.022V79.3433C223.42 78.945 223.708 78.7311 224.114 78.7311C224.645 78.7311 224.873 79.0483 224.873 79.8005V82.249H225.552V79.712C225.552 78.6943 225.168 78.1485 224.327 78.1485C223.774 78.1485 223.361 78.4509 222.985 78.827H222.963L222.897 78.2444H222.351V82.249ZM228.556 82.3523C229.043 82.3523 229.463 82.0941 229.78 81.777H229.795L229.854 82.249H230.407V76.3859H229.736V77.9199L229.765 78.6131C229.419 78.3181 229.109 78.1485 228.644 78.1485C227.73 78.1485 226.904 78.9524 226.904 80.2578C226.904 81.5926 227.553 82.3523 228.556 82.3523ZM228.703 81.7844C228.003 81.7844 227.604 81.2091 227.604 80.2504C227.604 79.3359 228.113 78.709 228.755 78.709C229.087 78.709 229.397 78.827 229.736 79.1368V81.2386C229.404 81.6 229.079 81.7844 228.703 81.7844ZM236.217 82.3523C236.917 82.3523 237.441 82.072 237.869 81.5705L237.5 81.1428C237.153 81.5263 236.755 81.7475 236.246 81.7475C235.214 81.7475 234.565 80.8994 234.565 79.535C234.565 78.1854 235.243 77.3446 236.268 77.3446C236.726 77.3446 237.087 77.5511 237.367 77.8535L237.743 77.411C237.426 77.0644 236.917 76.7473 236.261 76.7473C234.889 76.7473 233.864 77.8093 233.864 79.5498C233.864 81.305 234.867 82.3523 236.217 82.3523ZM240.229 82.3523C240.782 82.3523 241.18 82.0573 241.556 81.6221H241.571L241.63 82.249H242.183V78.2444H241.512V81.0911C241.136 81.5631 240.841 81.7623 240.435 81.7623C239.904 81.7623 239.676 81.4451 239.676 80.7003V78.2444H239.005V80.7814C239.005 81.8065 239.388 82.3523 240.229 82.3523ZM244.598 82.3523C244.782 82.3523 244.886 82.3228 244.981 82.2933L244.893 81.777C244.812 81.7918 244.782 81.7918 244.753 81.7918C244.65 81.7918 244.561 81.7106 244.561 81.4968V76.3859H243.89V81.4525C243.89 82.0278 244.089 82.3523 244.598 82.3523ZM247.586 82.3523C247.837 82.3523 248.102 82.2785 248.324 82.1974L248.191 81.6959C248.065 81.7475 247.881 81.8065 247.741 81.8065C247.276 81.8065 247.121 81.5189 247.121 81.0321V78.7901H248.206V78.2444H247.121V77.116H246.554L246.48 78.2444L245.853 78.2886V78.7901H246.45V81.0174C246.45 81.8139 246.731 82.3523 247.586 82.3523ZM250.624 82.3523C251.177 82.3523 251.576 82.0573 251.952 81.6221H251.967L252.026 82.249H252.579V78.2444H251.908V81.0911C251.531 81.5631 251.236 81.7623 250.831 81.7623C250.3 81.7623 250.071 81.4451 250.071 80.7003V78.2444H249.4V80.7814C249.4 81.8065 249.784 82.3523 250.624 82.3523ZM254.285 82.249H254.957V79.6825C255.222 78.9966 255.635 78.7533 255.967 78.7533C256.129 78.7533 256.218 78.7754 256.358 78.8196L256.483 78.2296C256.35 78.1706 256.232 78.1485 256.055 78.1485C255.606 78.1485 255.193 78.4656 254.92 78.9745H254.898L254.831 78.2444H254.285V82.249ZM258.197 82.3523C258.691 82.3523 259.141 82.0941 259.517 81.777H259.547L259.606 82.249H260.159V79.7931C260.159 78.7975 259.746 78.1485 258.765 78.1485C258.123 78.1485 257.563 78.4288 257.194 78.6648L257.46 79.1368C257.769 78.9229 258.19 78.7016 258.662 78.7016C259.318 78.7016 259.48 79.1958 259.48 79.712C257.777 79.9038 257.024 80.3389 257.024 81.2091C257.024 81.9319 257.526 82.3523 258.197 82.3523ZM258.381 81.8065C257.991 81.8065 257.681 81.6221 257.681 81.1649C257.681 80.6486 258.131 80.3168 259.48 80.1619V81.2755C259.097 81.6221 258.772 81.8065 258.381 81.8065ZM262.485 82.3523C262.67 82.3523 262.773 82.3228 262.869 82.2933L262.78 81.777C262.699 81.7918 262.67 81.7918 262.64 81.7918C262.537 81.7918 262.449 81.7106 262.449 81.4968V76.3859H261.777V81.4525C261.777 82.0278 261.977 82.3523 262.485 82.3523ZM268.318 82.3523C269.018 82.3523 269.542 82.072 269.97 81.5705L269.601 81.1428C269.254 81.5263 268.856 81.7475 268.347 81.7475C267.315 81.7475 266.666 80.8994 266.666 79.535C266.666 78.1854 267.344 77.3446 268.369 77.3446C268.827 77.3446 269.188 77.5511 269.468 77.8535L269.844 77.411C269.527 77.0644 269.018 76.7473 268.362 76.7473C266.99 76.7473 265.965 77.8093 265.965 79.5498C265.965 81.305 266.968 82.3523 268.318 82.3523ZM272.881 82.3523C273.426 82.3523 273.847 82.1679 274.201 81.9393L273.957 81.4894C273.662 81.6885 273.345 81.8139 272.962 81.8139C272.195 81.8139 271.678 81.2608 271.627 80.4126H274.326C274.348 80.3094 274.356 80.1693 274.356 80.0291C274.356 78.8786 273.78 78.1485 272.763 78.1485C271.841 78.1485 270.963 78.9524 270.963 80.2578C270.963 81.5705 271.811 82.3523 272.881 82.3523ZM271.619 79.9259C271.708 79.1368 272.209 78.6869 272.77 78.6869C273.404 78.6869 273.766 79.122 273.766 79.9259H271.619ZM275.696 82.249H276.367V79.3433C276.765 78.945 277.053 78.7311 277.458 78.7311C277.989 78.7311 278.218 79.0483 278.218 79.8005V82.249H278.896V79.712C278.896 78.6943 278.513 78.1485 277.672 78.1485C277.119 78.1485 276.706 78.4509 276.33 78.827H276.308L276.241 78.2444H275.696V82.249ZM281.797 82.3523C282.048 82.3523 282.314 82.2785 282.535 82.1974L282.402 81.6959C282.277 81.7475 282.092 81.8065 281.952 81.8065C281.488 81.8065 281.333 81.5189 281.333 81.0321V78.7901H282.417V78.2444H281.333V77.116H280.765L280.691 78.2444L280.064 78.2886V78.7901H280.662V81.0174C280.662 81.8139 280.942 82.3523 281.797 82.3523ZM285.156 82.3523C285.702 82.3523 286.122 82.1679 286.476 81.9393L286.233 81.4894C285.938 81.6885 285.62 81.8139 285.237 81.8139C284.47 81.8139 283.954 81.2608 283.902 80.4126H286.601C286.623 80.3094 286.631 80.1693 286.631 80.0291C286.631 78.8786 286.056 78.1485 285.038 78.1485C284.116 78.1485 283.238 78.9524 283.238 80.2578C283.238 81.5705 284.086 82.3523 285.156 82.3523ZM283.895 79.9259C283.983 79.1368 284.485 78.6869 285.045 78.6869C285.679 78.6869 286.041 79.122 286.041 79.9259H283.895ZM287.971 82.249H288.642V79.6825C288.908 78.9966 289.321 78.7533 289.652 78.7533C289.815 78.7533 289.903 78.7754 290.043 78.8196L290.169 78.2296C290.036 78.1706 289.918 78.1485 289.741 78.1485C289.291 78.1485 288.878 78.4656 288.605 78.9745H288.583L288.517 78.2444H287.971V82.249Z" fill="#434343"/>
<path d="M66.9015 82.3523C67.6021 82.3523 68.1257 82.072 68.5535 81.5705L68.1847 81.1428C67.8381 81.5263 67.4398 81.7475 66.931 81.7475C65.8985 81.7475 65.2495 80.8994 65.2495 79.535C65.2495 78.1854 65.928 77.3446 66.9531 77.3446C67.4103 77.3446 67.7717 77.5511 68.052 77.8535L68.4281 77.411C68.111 77.0644 67.6021 76.7473 66.9457 76.7473C65.574 76.7473 64.5488 77.8093 64.5488 79.5498C64.5488 81.305 65.5518 82.3523 66.9015 82.3523ZM72.1158 82.3523C72.6689 82.3523 73.0671 82.0573 73.4433 81.6221H73.458L73.517 82.249H74.0701V78.2444H73.399V81.0911C73.0229 81.5631 72.7279 81.7623 72.3223 81.7623C71.7913 81.7623 71.5626 81.4451 71.5626 80.7003V78.2444H70.8915V80.7814C70.8915 81.8065 71.275 82.3523 72.1158 82.3523ZM77.687 82.3523C77.8714 82.3523 77.9746 82.3228 78.0705 82.2933L77.982 81.777C77.9009 81.7918 77.8714 81.7918 77.8419 81.7918C77.7386 81.7918 77.6501 81.7106 77.6501 81.4968V76.3859H76.979V81.4525C76.979 82.0278 77.1781 82.3523 77.687 82.3523ZM81.8773 82.3523C82.1281 82.3523 82.3936 82.2785 82.6148 82.1974L82.4821 81.6959C82.3567 81.7475 82.1723 81.8065 82.0322 81.8065C81.5676 81.8065 81.4127 81.5189 81.4127 81.0321V78.7901H82.4968V78.2444H81.4127V77.116H80.8448L80.7711 78.2444L80.1442 78.2886V78.7901H80.7416V81.0174C80.7416 81.8139 81.0218 82.3523 81.8773 82.3523ZM86.1176 82.3523C86.6707 82.3523 87.069 82.0573 87.4451 81.6221H87.4599L87.5189 82.249H88.072V78.2444H87.4009V81.0911C87.0247 81.5631 86.7297 81.7623 86.3241 81.7623C85.7931 81.7623 85.5645 81.4451 85.5645 80.7003V78.2444H84.8934V80.7814C84.8934 81.8065 85.2769 82.3523 86.1176 82.3523ZM90.9808 82.249H91.652V79.6825C91.9175 78.9966 92.3305 78.7533 92.6623 78.7533C92.8246 78.7533 92.9131 78.7754 93.0532 78.8196L93.1786 78.2296C93.0458 78.1706 92.9278 78.1485 92.7508 78.1485C92.301 78.1485 91.888 78.4656 91.6151 78.9745H91.593L91.5266 78.2444H90.9808V82.249ZM96.0947 82.3523C96.5888 82.3523 97.0387 82.0941 97.4148 81.777H97.4443L97.5033 82.249H98.0564V79.7931C98.0564 78.7975 97.6434 78.1485 96.6625 78.1485C96.0209 78.1485 95.4604 78.4288 95.0917 78.6648L95.3572 79.1368C95.6669 78.9229 96.0873 78.7016 96.5593 78.7016C97.2157 78.7016 97.3779 79.1958 97.3779 79.712C95.6743 79.9038 94.922 80.3389 94.922 81.2091C94.922 81.9319 95.4235 82.3523 96.0947 82.3523ZM96.279 81.8065C95.8882 81.8065 95.5784 81.6221 95.5784 81.1649C95.5784 80.6486 96.0283 80.3168 97.3779 80.1619V81.2755C96.9944 81.6221 96.6699 81.8065 96.279 81.8065ZM101.585 82.3523C101.77 82.3523 101.873 82.3228 101.969 82.2933L101.88 81.777C101.799 81.7918 101.77 81.7918 101.74 81.7918C101.637 81.7918 101.548 81.7106 101.548 81.4968V76.3859H100.877V81.4525C100.877 82.0278 101.076 82.3523 101.585 82.3523ZM107.779 82.249H108.465V80.1029H109.35C110.537 80.1029 111.348 79.5719 111.348 78.4361C111.348 77.2488 110.53 76.8431 109.32 76.8431H107.779V82.249ZM108.465 79.5498V77.4036H109.232C110.19 77.4036 110.67 77.647 110.67 78.4361C110.67 79.2031 110.213 79.5498 109.269 79.5498H108.465ZM114.483 82.3523C114.977 82.3523 115.427 82.0941 115.803 81.777H115.833L115.892 82.249H116.445V79.7931C116.445 78.7975 116.032 78.1485 115.051 78.1485C114.409 78.1485 113.849 78.4288 113.48 78.6648L113.745 79.1368C114.055 78.9229 114.476 78.7016 114.948 78.7016C115.604 78.7016 115.766 79.1958 115.766 79.712C114.063 79.9038 113.31 80.3389 113.31 81.2091C113.31 81.9319 113.812 82.3523 114.483 82.3523ZM114.667 81.8065C114.276 81.8065 113.967 81.6221 113.967 81.1649C113.967 80.6486 114.417 80.3168 115.766 80.1619V81.2755C115.383 81.6221 115.058 81.8065 114.667 81.8065ZM119.265 82.249H119.937V79.6825C120.202 78.9966 120.615 78.7533 120.947 78.7533C121.109 78.7533 121.198 78.7754 121.338 78.8196L121.463 78.2296C121.33 78.1706 121.212 78.1485 121.035 78.1485C120.586 78.1485 120.173 78.4656 119.9 78.9745H119.878L119.811 78.2444H119.265V82.249ZM123.673 82.249H124.337V81.1944L125.082 80.3168L126.255 82.249H126.985L125.48 79.8595L126.815 78.2444H126.063L124.359 80.361H124.337V76.3859H123.673V82.249Z" fill="#434343"/>
<path d="M162.937 64.7004C163.264 65.4927 163.578 66.5492 163.704 67.178L164.421 66.939C164.308 66.3228 163.955 65.3041 163.616 64.5118L162.937 64.7004ZM161.817 67.8571C161.968 68.6997 162.107 69.819 162.144 70.5484L162.836 70.3975C162.798 69.6555 162.648 68.5614 162.497 67.7062L161.817 67.8571ZM160.66 67.7313C160.51 68.75 160.296 69.8693 159.956 70.649C160.145 70.6993 160.497 70.8125 160.648 70.9006C160.937 70.1208 161.214 68.9387 161.377 67.8571L160.66 67.7313ZM160.195 64.3483C160.195 64.1597 160.761 63.8704 160.761 63.8704V63.8452C161.528 62.8391 162.321 61.3677 162.886 59.9717L162.044 59.6196C161.604 60.9778 160.799 62.4367 160.547 62.8014C160.321 63.1913 160.107 63.4554 159.893 63.5057C160.006 63.7321 160.145 64.1597 160.195 64.3483ZM160.195 64.3483C160.384 64.2477 160.723 64.1722 162.685 63.9459C162.673 63.7698 162.71 63.4428 162.748 63.229L160.61 63.4177L160.17 63.6943L160.195 64.3483ZM160.271 67.2031C160.271 67.0271 160.824 66.7504 160.824 66.7504V66.7378C161.994 65.4802 163.188 63.6943 164.132 61.9336L163.339 61.5312C162.559 63.2416 161.277 65.0652 160.899 65.5305C160.522 65.9958 160.245 66.3228 159.994 66.3857C160.095 66.612 160.233 67.0271 160.271 67.2031ZM160.271 67.2031C160.522 67.0648 160.899 66.9642 163.83 66.3982C163.817 66.2347 163.805 65.9078 163.842 65.694L160.66 66.2347L160.233 66.524L160.271 67.2031ZM162.974 67.6181C163.188 68.3098 163.427 69.2028 163.515 69.7938L164.194 69.6052C164.094 69.0141 163.842 68.1338 163.616 67.4421L162.974 67.6181ZM169.778 67.8319C170.156 68.6242 170.633 69.6681 170.847 70.3346L171.564 70.0202C171.325 69.3663 170.847 68.3476 170.445 67.5553L169.778 67.8319ZM165.854 67.6181V69.8442C165.854 70.6868 166.119 70.9006 167.15 70.9006C167.364 70.9006 168.76 70.9006 168.973 70.9006C169.816 70.9006 170.042 70.561 170.143 69.1776C169.904 69.1147 169.59 69.0141 169.426 68.8758C169.376 70.0328 169.3 70.1963 168.898 70.1963C168.596 70.1963 167.452 70.1963 167.225 70.1963C166.747 70.1963 166.672 70.146 166.672 69.8442V67.6181H165.854ZM164.949 67.6181C164.785 68.4356 164.459 69.5423 164.081 70.2214L164.785 70.561C165.15 69.8442 165.439 68.6997 165.628 67.8571L164.949 67.6181ZM167.15 59.5567C167.037 59.9717 166.798 60.5754 166.622 60.9904L167.351 61.1791C167.577 60.8144 167.854 60.2736 168.106 59.7454L167.15 59.5567ZM168.005 61.7953C167.64 62.487 166.949 63.3296 165.968 63.9584C166.119 64.0465 166.32 64.2603 166.408 64.3986C167.477 63.6692 168.194 62.7637 168.659 61.8959L168.005 61.7953ZM166.295 62.3487C167.389 63.2542 168.646 64.5998 169.225 65.5053L169.778 65.0903C169.212 64.2351 167.942 62.902 166.823 61.9965L166.295 62.3487ZM169.2 62.487C168.709 63.3925 167.766 64.5244 166.458 65.3293C166.596 65.4299 166.785 65.6311 166.886 65.782C168.282 64.8639 169.25 63.6818 169.854 62.6002L169.2 62.487ZM165.804 61.6192H170.03V65.9078H165.804V61.6192ZM164.962 60.8395V66.7126H170.898V60.8395H164.962ZM167.338 67.2031C167.766 67.8445 168.282 68.7123 168.533 69.2279L169.187 68.8506C168.923 68.3601 168.382 67.5175 167.967 66.8887L167.338 67.2031ZM191.309 61.1162C189.863 62.6631 186.731 63.4554 183.688 63.8201C183.876 63.9962 184.153 64.3986 184.266 64.6124C187.259 64.1345 190.517 63.2667 192.164 61.4935L191.309 61.1162ZM187.385 59.6699C186.543 60.3868 185.134 61.0785 183.889 61.5186C184.09 61.6695 184.405 62.0343 184.543 62.2229C185.788 61.7073 187.285 60.8772 188.24 60.0095L187.385 59.6699ZM187.8 61.1791L187.046 61.5061C188.605 63.2793 191.573 64.2477 194.805 64.5747C194.918 64.3231 195.157 63.9584 195.333 63.7698C192.139 63.5057 189.171 62.6756 187.8 61.1791ZM190.378 64.9268V71.2024H191.309V65.6814H194.113V64.9268H190.378ZM183.99 64.9268V65.7065H189.787V64.9268H183.99ZM185.297 66.4611V67.1151H188.517V66.4611H185.297ZM185.297 67.8948V68.5236H188.517V67.8948H185.297ZM188.102 65.1909V71.2024H189.02V65.1909H188.102ZM183.839 69.5926L183.927 70.3598C185.172 70.234 186.844 70.0705 188.492 69.907L188.479 69.2153C186.756 69.3537 185.021 69.5172 183.839 69.5926ZM184.857 65.2035V69.8567L185.75 69.7938V65.2035H184.857ZM190.617 60.1981C191.913 60.7012 193.535 61.5438 194.315 62.1726L194.994 61.5312C194.151 60.9024 192.529 60.0975 191.259 59.6322L190.617 60.1981ZM193.912 64.9142V65.0777C193.535 65.7317 192.931 66.6749 192.328 67.4798C193.472 68.096 193.887 68.6242 193.9 69.077C193.9 69.3663 193.799 69.5549 193.573 69.6429C193.447 69.7058 193.271 69.731 193.107 69.7435C192.806 69.7561 192.428 69.7561 192.001 69.7184C192.164 69.9322 192.277 70.2843 192.29 70.5233C192.692 70.561 193.145 70.5484 193.497 70.5107C193.736 70.4855 194.013 70.4227 194.201 70.3095C194.629 70.0705 194.843 69.7184 194.83 69.1525C194.83 68.5865 194.453 67.9954 193.346 67.3415C193.849 66.7252 194.428 65.9455 194.918 65.2664L194.252 64.8765L194.088 64.9142H193.912ZM207.646 68.6494V69.2656H218.889V68.6494H207.646ZM209.23 67.4043V68.0206H217.392V67.4043H209.23ZM214.852 69.6429C215.908 70.0831 217.153 70.8503 217.795 71.4162L218.449 70.9383C217.795 70.4101 216.537 69.6555 215.493 69.2279L214.852 69.6429ZM208.689 71.2275C208.689 71.0641 209.331 70.8628 209.331 70.8628V70.8503C210.4 70.4352 211.557 69.7813 212.651 69.0015L211.733 68.6997C210.84 69.4166 209.658 70.0579 209.28 70.2214C208.941 70.3849 208.652 70.4855 208.413 70.5107C208.513 70.7119 208.639 71.0641 208.689 71.2275ZM208.689 71.2275C209.155 71.0892 209.859 71.0641 217.166 70.7119C217.103 70.561 217.04 70.2843 217.015 70.0957L209.318 70.4101L208.677 70.6993L208.689 71.2275ZM208.488 62.1977V62.7511H212.676V62.1977H208.488ZM213.569 62.7511V63.4554H217.216V62.7511H213.569ZM208.35 65.2538V65.8072H212.877V65.2538H208.35ZM207.872 63.2667V63.8327H213.255V63.2667H207.872ZM210.702 59.6322V61.745H211.62V59.6322H210.702ZM210.186 61.7827V63.644H211.003V61.7827H210.186ZM210.186 64.6124V66.7252H211.003V64.6124H210.186ZM214.902 59.6322V61.745H215.82V59.6322H214.902ZM207.822 66.5492L207.885 67.178C209.293 67.0899 211.293 66.939 213.229 66.7881V66.2347C211.217 66.3731 209.155 66.4863 207.822 66.5492ZM209.356 63.556C209.243 64.21 208.84 64.5118 207.696 64.6879C207.834 64.7885 208.01 65.0274 208.073 65.1783C209.369 64.9142 209.859 64.4615 209.997 63.556H209.356ZM216.801 62.7511V65.7946C216.801 66.4611 216.851 66.6372 217.002 66.7881C217.153 66.9264 217.392 66.9893 217.619 66.9893C217.732 66.9893 217.996 66.9893 218.122 66.9893C218.298 66.9893 218.512 66.9642 218.625 66.8761C218.763 66.8007 218.876 66.6875 218.927 66.4989C218.989 66.3228 219.027 65.7946 219.04 65.3544C218.851 65.2915 218.612 65.1783 218.461 65.0526C218.449 65.5053 218.436 65.8575 218.411 66.0084C218.398 66.1593 218.361 66.2473 218.31 66.2725C218.26 66.3102 218.172 66.3228 218.084 66.3228C217.996 66.3228 217.87 66.3228 217.795 66.3228C217.719 66.3228 217.669 66.3102 217.631 66.2599C217.581 66.2222 217.581 66.0838 217.581 65.8323V62.7511H216.801ZM213.418 64.3986C214.399 64.8262 215.518 65.5305 216.072 66.0838L216.562 65.4802C215.996 64.9268 214.839 64.2477 213.883 63.8578L213.418 64.3986ZM215.015 61.8959V63.0529C215.015 64.1219 214.789 65.6059 212.965 66.7126C213.154 66.851 213.418 67.0899 213.531 67.2409C215.506 66.021 215.757 64.3609 215.757 63.0655V61.8959H215.015ZM210.978 63.5308V64.0716C210.978 64.6753 211.091 64.9142 211.67 64.9142C211.821 64.9142 212.387 64.9142 212.55 64.9142C212.752 64.9142 212.991 64.9142 213.129 64.8639C213.104 64.713 213.091 64.5118 213.066 64.3483C212.928 64.3986 212.676 64.3986 212.538 64.3986C212.399 64.3986 211.922 64.3986 211.796 64.3986C211.62 64.3986 211.607 64.3357 211.607 64.0842V63.5308H210.978ZM207.771 60.4748V61.1791H213.091V60.4748H207.771ZM213.519 60.4748V61.1791H218.826V60.4748H213.519ZM239.866 62.2858C238.432 66.5743 235.691 69.0015 231.214 70.2969C231.402 70.5107 231.691 70.9509 231.805 71.1772C236.37 69.7184 239.237 67.1402 240.847 62.5625L239.866 62.2858ZM234.156 62.3361L233.276 62.6128C234.873 66.8636 237.753 69.8819 242.268 71.1269C242.419 70.8628 242.696 70.4604 242.922 70.2466C238.52 69.1525 235.578 66.2347 234.156 62.3361ZM231.39 61.8582V62.7763H242.759V61.8582H231.39ZM236.081 59.846C236.458 60.4748 236.848 61.3048 237.011 61.8205L238.043 61.4935C237.866 60.9653 237.439 60.1478 237.062 59.5567L236.081 59.846ZM255.737 61.8833V67.8697H256.681V62.814H264.893V67.8068H265.874V61.8833H255.737ZM256.24 66.1593V67.0774H265.459V66.1593H256.24ZM260.29 59.6322V71.1898H261.271V59.6322H260.29ZM282.009 63.1536V69.3788C282.009 70.6365 282.399 70.976 283.77 70.976C284.047 70.976 285.996 70.976 286.31 70.976C287.719 70.976 288.021 70.2717 288.147 67.8822C287.895 67.8068 287.48 67.6433 287.254 67.4672C287.153 69.6429 287.04 70.0831 286.26 70.0831C285.82 70.0831 284.185 70.0831 283.845 70.0831C283.129 70.0831 282.978 69.9699 282.978 69.3914V63.1536H282.009ZM279.997 64.0842C279.808 65.5808 279.393 67.5553 278.853 68.8506L279.796 69.2531C280.312 67.8948 280.701 65.7568 280.903 64.2728L279.997 64.0842ZM287.87 64.0968C288.574 65.5934 289.266 67.5804 289.505 68.8758L290.448 68.5111C290.171 67.2031 289.467 65.2664 288.738 63.7698L287.87 64.0968ZM282.6 60.7012C283.795 61.5438 285.279 62.7888 285.971 63.5686L286.65 62.8643C285.921 62.072 284.411 60.8898 283.242 60.0849L282.6 60.7012Z" fill="#434343"/>
<path fill-rule="evenodd" clip-rule="evenodd" d="M144.103 71.3188L154.724 82.0124L155.094 81.6456L144.47 70.9494L155.095 60.2517L154.726 59.8848L144.103 70.58L133.478 59.8828L133.108 60.2497L143.736 70.9494L133.11 81.6476L133.479 82.0144L144.103 71.3188Z" fill="#434343"/>
<path d="M1 104H291" stroke="#434343" stroke-width="1.5"/>
<path d="M1 52H291" stroke="#434343" stroke-width="1.5"/>
</svg>
